<?xml version="1.0" encoding="UTF-8"?>
<svg xmlns="http://www.w3.org/2000/svg" xmlns:xlink="http://www.w3.org/1999/xlink" width="360pt" height="108pt" viewBox="0 0 360 108" version="1.1">
<g id="surface899">
<rect x="0" y="0" width="360" height="108" style="fill:rgb(100%,100%,100%);fill-opacity:1;stroke:none;"/>
<path style="fill:none;stroke-width:0.533489;stroke-linecap:butt;stroke-linejoin:round;stroke:rgb(50.196078%,50.196078%,50.196078%);stroke-opacity:1;stroke-miterlimit:10;" d="M 265.65625 57.375 L 265.65625 50.625 "/>
<path style="fill:none;stroke-width:0.533489;stroke-linecap:butt;stroke-linejoin:round;stroke:rgb(50.196078%,50.196078%,50.196078%);stroke-opacity:1;stroke-miterlimit:10;" d="M 265.65625 54 L 124.722656 54 "/>
<path style="fill:none;stroke-width:0.533489;stroke-linecap:butt;stroke-linejoin:round;stroke:rgb(50.196078%,50.196078%,50.196078%);stroke-opacity:1;stroke-miterlimit:10;" d="M 124.722656 57.375 L 124.722656 50.625 "/>
<path style="fill-rule:nonzero;fill:rgb(50.196078%,50.196078%,50.196078%);fill-opacity:1;stroke-width:0.708661;stroke-linecap:round;stroke-linejoin:round;stroke:rgb(50.196078%,50.196078%,50.196078%);stroke-opacity:1;stroke-miterlimit:10;" d="M 197.144531 54 C 197.144531 56.605469 193.234375 56.605469 193.234375 54 C 193.234375 51.394531 197.144531 51.394531 197.144531 54 "/>
<path style="fill:none;stroke-width:0.708661;stroke-linecap:round;stroke-linejoin:round;stroke:rgb(50.196078%,50.196078%,50.196078%);stroke-opacity:1;stroke-miterlimit:10;" d="M 203.007812 59.960938 L 205.640625 64.519531 L 200.375 64.519531 L 203.007812 59.960938 "/>
<path style=" stroke:none;fill-rule:nonzero;fill:rgb(44.705882%,70.588235%,95.294118%);fill-opacity:0.627451;" d="M 280.519531 51.367188 L 280.894531 51.429688 L 280.988281 51.449219 L 281.175781 51.480469 L 281.265625 51.496094 L 282.390625 51.683594 L 282.484375 51.695312 L 282.671875 51.726562 L 282.761719 51.742188 L 282.855469 51.753906 L 283.136719 51.800781 L 283.230469 51.8125 L 283.324219 51.828125 L 283.417969 51.839844 L 283.605469 51.871094 L 283.699219 51.882812 L 283.792969 51.898438 L 283.886719 51.910156 L 283.980469 51.925781 L 284.074219 51.9375 L 284.167969 51.953125 L 284.257812 51.964844 L 284.351562 51.980469 L 284.539062 52.003906 L 284.632812 52.019531 L 284.726562 52.03125 L 284.820312 52.046875 L 285.101562 52.082031 L 285.195312 52.097656 L 285.476562 52.132812 L 285.570312 52.148438 L 285.664062 52.160156 L 285.753906 52.171875 L 287.160156 52.347656 L 287.25 52.359375 L 287.4375 52.382812 L 287.53125 52.390625 L 287.90625 52.4375 L 288 52.445312 L 288.1875 52.46875 L 288.28125 52.476562 L 288.46875 52.5 L 288.5625 52.507812 L 288.75 52.53125 L 288.839844 52.539062 L 289.027344 52.5625 L 289.121094 52.570312 L 289.214844 52.582031 L 289.308594 52.589844 L 289.402344 52.601562 L 289.496094 52.609375 L 289.589844 52.621094 L 289.683594 52.628906 L 289.777344 52.640625 L 289.964844 52.65625 L 290.058594 52.667969 L 290.152344 52.675781 L 290.246094 52.6875 L 290.335938 52.695312 L 290.429688 52.703125 L 290.523438 52.714844 L 290.710938 52.730469 L 290.804688 52.742188 L 291.085938 52.765625 L 291.179688 52.777344 L 291.554688 52.808594 L 291.648438 52.820312 L 291.742188 52.828125 L 291.832031 52.835938 L 292.394531 52.882812 L 292.488281 52.894531 L 293.144531 52.949219 L 293.238281 52.953125 L 293.328125 52.960938 L 293.984375 53.015625 L 294.078125 53.019531 L 294.546875 53.058594 L 294.640625 53.0625 L 294.734375 53.070312 L 294.824219 53.078125 L 294.917969 53.085938 L 295.011719 53.089844 L 295.199219 53.105469 L 295.292969 53.109375 L 295.480469 53.125 L 295.574219 53.128906 L 295.761719 53.144531 L 295.855469 53.148438 L 296.042969 53.164062 L 296.136719 53.167969 L 296.230469 53.175781 L 296.320312 53.179688 L 296.414062 53.1875 L 296.507812 53.191406 L 296.695312 53.207031 L 296.789062 53.210938 L 296.882812 53.21875 L 296.976562 53.222656 L 297.070312 53.230469 L 297.164062 53.234375 L 297.257812 53.242188 L 297.445312 53.25 L 297.539062 53.257812 L 297.632812 53.261719 L 297.726562 53.269531 L 297.816406 53.273438 L 297.910156 53.28125 L 298.097656 53.289062 L 298.191406 53.296875 L 298.285156 53.300781 L 298.378906 53.308594 L 298.566406 53.316406 L 298.660156 53.324219 L 298.847656 53.332031 L 298.941406 53.339844 L 299.222656 53.351562 L 299.3125 53.359375 L 299.59375 53.371094 L 299.6875 53.378906 L 299.96875 53.390625 L 300.0625 53.398438 L 300.53125 53.417969 L 300.625 53.425781 L 300.71875 53.429688 L 300.808594 53.433594 L 301.277344 53.453125 L 301.371094 53.460938 L 302.214844 53.496094 L 302.304688 53.5 L 303.710938 53.558594 L 303.800781 53.558594 L 304.457031 53.585938 L 304.550781 53.585938 L 305.113281 53.609375 L 305.207031 53.609375 L 305.296875 53.613281 L 305.578125 53.625 L 305.671875 53.625 L 305.953125 53.636719 L 306.046875 53.636719 L 306.328125 53.648438 L 306.421875 53.648438 L 306.703125 53.660156 L 306.792969 53.660156 L 306.980469 53.667969 L 307.074219 53.667969 L 307.355469 53.679688 L 307.449219 53.679688 L 307.636719 53.6875 L 307.730469 53.6875 L 307.917969 53.695312 L 308.011719 53.695312 L 308.199219 53.703125 L 308.289062 53.703125 L 308.382812 53.707031 L 308.476562 53.707031 L 308.664062 53.714844 L 308.757812 53.714844 L 308.851562 53.71875 L 308.945312 53.71875 L 309.132812 53.726562 L 309.226562 53.726562 L 309.320312 53.730469 L 309.414062 53.730469 L 309.601562 53.738281 L 309.695312 53.738281 L 309.785156 53.742188 L 309.878906 53.742188 L 309.972656 53.746094 L 310.066406 53.746094 L 310.160156 53.75 L 310.253906 53.75 L 310.441406 53.757812 L 310.535156 53.757812 L 310.628906 53.761719 L 310.722656 53.761719 L 310.816406 53.765625 L 310.910156 53.765625 L 311.003906 53.769531 L 311.097656 53.769531 L 311.191406 53.773438 L 311.28125 53.773438 L 311.375 53.777344 L 311.46875 53.777344 L 311.5625 53.78125 L 311.65625 53.78125 L 311.75 53.785156 L 311.84375 53.785156 L 311.9375 53.789062 L 312.03125 53.789062 L 312.125 53.792969 L 312.3125 53.792969 L 312.40625 53.796875 L 312.5 53.796875 L 312.59375 53.800781 L 312.6875 53.800781 L 312.777344 53.804688 L 312.871094 53.804688 L 312.964844 53.808594 L 313.152344 53.808594 L 313.246094 53.8125 L 313.339844 53.8125 L 313.433594 53.816406 L 313.527344 53.816406 L 313.621094 53.820312 L 313.808594 53.820312 L 313.902344 53.824219 L 313.996094 53.824219 L 314.089844 53.828125 L 314.273438 53.828125 L 314.367188 53.832031 L 314.554688 53.832031 L 314.648438 53.835938 L 314.742188 53.835938 L 314.835938 53.839844 L 315.023438 53.839844 L 315.117188 53.84375 L 315.304688 53.84375 L 315.398438 53.847656 L 315.585938 53.847656 L 315.679688 53.851562 L 315.863281 53.851562 L 315.957031 53.855469 L 316.144531 53.855469 L 316.238281 53.859375 L 316.425781 53.859375 L 316.519531 53.863281 L 316.707031 53.863281 L 316.800781 53.867188 L 316.988281 53.867188 L 317.082031 53.871094 L 317.359375 53.871094 L 317.453125 53.875 L 317.640625 53.875 L 317.734375 53.878906 L 318.015625 53.878906 L 318.109375 53.882812 L 318.296875 53.882812 L 318.390625 53.886719 L 318.671875 53.886719 L 318.761719 53.890625 L 319.042969 53.890625 L 319.136719 53.894531 L 319.417969 53.894531 L 319.511719 53.898438 L 319.792969 53.898438 L 319.886719 53.902344 L 320.167969 53.902344 L 320.257812 53.90625 L 320.632812 53.90625 L 320.726562 53.910156 L 321.101562 53.910156 L 321.195312 53.914062 L 321.476562 53.914062 L 321.570312 53.917969 L 322.035156 53.917969 L 322.128906 53.921875 L 322.503906 53.921875 L 322.597656 53.925781 L 322.972656 53.925781 L 323.066406 53.929688 L 323.53125 53.929688 L 323.625 53.933594 L 324.09375 53.933594 L 324.1875 53.9375 L 324.75 53.9375 L 324.839844 53.941406 L 325.402344 53.941406 L 325.496094 53.945312 L 326.058594 53.945312 L 326.152344 53.949219 L 326.804688 53.949219 L 326.898438 53.953125 L 327.554688 53.953125 L 327.554688 54 L 280.519531 54 Z M 280.519531 51.367188 "/>
<path style="fill:none;stroke-width:0.0075;stroke-linecap:round;stroke-linejoin:round;stroke:rgb(0%,0%,0%);stroke-opacity:1;stroke-miterlimit:10;" d="M 280.519531 51.367188 L 280.894531 51.429688 L 280.988281 51.449219 L 281.175781 51.480469 L 281.265625 51.496094 L 282.390625 51.683594 L 282.484375 51.695312 L 282.671875 51.726562 L 282.761719 51.742188 L 282.855469 51.753906 L 283.136719 51.800781 L 283.230469 51.8125 L 283.324219 51.828125 L 283.417969 51.839844 L 283.605469 51.871094 L 283.699219 51.882812 L 283.792969 51.898438 L 283.886719 51.910156 L 283.980469 51.925781 L 284.074219 51.9375 L 284.167969 51.953125 L 284.257812 51.964844 L 284.351562 51.980469 L 284.539062 52.003906 L 284.632812 52.019531 L 284.726562 52.03125 L 284.820312 52.046875 L 285.101562 52.082031 L 285.195312 52.097656 L 285.476562 52.132812 L 285.570312 52.148438 L 285.664062 52.160156 L 285.753906 52.171875 L 287.160156 52.347656 L 287.25 52.359375 L 287.4375 52.382812 L 287.53125 52.390625 L 287.90625 52.4375 L 288 52.445312 L 288.1875 52.46875 L 288.28125 52.476562 L 288.46875 52.5 L 288.5625 52.507812 L 288.75 52.53125 L 288.839844 52.539062 L 289.027344 52.5625 L 289.121094 52.570312 L 289.214844 52.582031 L 289.308594 52.589844 L 289.402344 52.601562 L 289.496094 52.609375 L 289.589844 52.621094 L 289.683594 52.628906 L 289.777344 52.640625 L 289.964844 52.65625 L 290.058594 52.667969 L 290.152344 52.675781 L 290.246094 52.6875 L 290.335938 52.695312 L 290.429688 52.703125 L 290.523438 52.714844 L 290.710938 52.730469 L 290.804688 52.742188 L 291.085938 52.765625 L 291.179688 52.777344 L 291.554688 52.808594 L 291.648438 52.820312 L 291.742188 52.828125 L 291.832031 52.835938 L 292.394531 52.882812 L 292.488281 52.894531 L 293.144531 52.949219 L 293.238281 52.953125 L 293.328125 52.960938 L 293.984375 53.015625 L 294.078125 53.019531 L 294.546875 53.058594 L 294.640625 53.0625 L 294.734375 53.070312 L 294.824219 53.078125 L 294.917969 53.085938 L 295.011719 53.089844 L 295.199219 53.105469 L 295.292969 53.109375 L 295.480469 53.125 L 295.574219 53.128906 L 295.761719 53.144531 L 295.855469 53.148438 L 296.042969 53.164062 L 296.136719 53.167969 L 296.230469 53.175781 L 296.320312 53.179688 L 296.414062 53.1875 L 296.507812 53.191406 L 296.695312 53.207031 L 296.789062 53.210938 L 296.882812 53.21875 L 296.976562 53.222656 L 297.070312 53.230469 L 297.164062 53.234375 L 297.257812 53.242188 L 297.445312 53.25 L 297.539062 53.257812 L 297.632812 53.261719 L 297.726562 53.269531 L 297.816406 53.273438 L 297.910156 53.28125 L 298.097656 53.289062 L 298.191406 53.296875 L 298.285156 53.300781 L 298.378906 53.308594 L 298.566406 53.316406 L 298.660156 53.324219 L 298.847656 53.332031 L 298.941406 53.339844 L 299.222656 53.351562 L 299.3125 53.359375 L 299.59375 53.371094 L 299.6875 53.378906 L 299.96875 53.390625 L 300.0625 53.398438 L 300.53125 53.417969 L 300.625 53.425781 L 300.71875 53.429688 L 300.808594 53.433594 L 301.277344 53.453125 L 301.371094 53.460938 L 302.214844 53.496094 L 302.304688 53.5 L 303.710938 53.558594 L 303.800781 53.558594 L 304.457031 53.585938 L 304.550781 53.585938 L 305.113281 53.609375 L 305.207031 53.609375 L 305.296875 53.613281 L 305.578125 53.625 L 305.671875 53.625 L 305.953125 53.636719 L 306.046875 53.636719 L 306.328125 53.648438 L 306.421875 53.648438 L 306.703125 53.660156 L 306.792969 53.660156 L 306.980469 53.667969 L 307.074219 53.667969 L 307.355469 53.679688 L 307.449219 53.679688 L 307.636719 53.6875 L 307.730469 53.6875 L 307.917969 53.695312 L 308.011719 53.695312 L 308.199219 53.703125 L 308.289062 53.703125 L 308.382812 53.707031 L 308.476562 53.707031 L 308.664062 53.714844 L 308.757812 53.714844 L 308.851562 53.71875 L 308.945312 53.71875 L 309.132812 53.726562 L 309.226562 53.726562 L 309.320312 53.730469 L 309.414062 53.730469 L 309.601562 53.738281 L 309.695312 53.738281 L 309.785156 53.742188 L 309.878906 53.742188 L 309.972656 53.746094 L 310.066406 53.746094 L 310.160156 53.75 L 310.253906 53.75 L 310.441406 53.757812 L 310.535156 53.757812 L 310.628906 53.761719 L 310.722656 53.761719 L 310.816406 53.765625 L 310.910156 53.765625 L 311.003906 53.769531 L 311.097656 53.769531 L 311.191406 53.773438 L 311.28125 53.773438 L 311.375 53.777344 L 311.46875 53.777344 L 311.5625 53.78125 L 311.65625 53.78125 L 311.75 53.785156 L 311.84375 53.785156 L 311.9375 53.789062 L 312.03125 53.789062 L 312.125 53.792969 L 312.3125 53.792969 L 312.40625 53.796875 L 312.5 53.796875 L 312.59375 53.800781 L 312.6875 53.800781 L 312.777344 53.804688 L 312.871094 53.804688 L 312.964844 53.808594 L 313.152344 53.808594 L 313.246094 53.8125 L 313.339844 53.8125 L 313.433594 53.816406 L 313.527344 53.816406 L 313.621094 53.820312 L 313.808594 53.820312 L 313.902344 53.824219 L 313.996094 53.824219 L 314.089844 53.828125 L 314.273438 53.828125 L 314.367188 53.832031 L 314.554688 53.832031 L 314.648438 53.835938 L 314.742188 53.835938 L 314.835938 53.839844 L 315.023438 53.839844 L 315.117188 53.84375 L 315.304688 53.84375 L 315.398438 53.847656 L 315.585938 53.847656 L 315.679688 53.851562 L 315.863281 53.851562 L 315.957031 53.855469 L 316.144531 53.855469 L 316.238281 53.859375 L 316.425781 53.859375 L 316.519531 53.863281 L 316.707031 53.863281 L 316.800781 53.867188 L 316.988281 53.867188 L 317.082031 53.871094 L 317.359375 53.871094 L 317.453125 53.875 L 317.640625 53.875 L 317.734375 53.878906 L 318.015625 53.878906 L 318.109375 53.882812 L 318.296875 53.882812 L 318.390625 53.886719 L 318.671875 53.886719 L 318.761719 53.890625 L 319.042969 53.890625 L 319.136719 53.894531 L 319.417969 53.894531 L 319.511719 53.898438 L 319.792969 53.898438 L 319.886719 53.902344 L 320.167969 53.902344 L 320.257812 53.90625 L 320.632812 53.90625 L 320.726562 53.910156 L 321.101562 53.910156 L 321.195312 53.914062 L 321.476562 53.914062 L 321.570312 53.917969 L 322.035156 53.917969 L 322.128906 53.921875 L 322.503906 53.921875 L 322.597656 53.925781 L 322.972656 53.925781 L 323.066406 53.929688 L 323.53125 53.929688 L 323.625 53.933594 L 324.09375 53.933594 L 324.1875 53.9375 L 324.75 53.9375 L 324.839844 53.941406 L 325.402344 53.941406 L 325.496094 53.945312 L 326.058594 53.945312 L 326.152344 53.949219 L 326.804688 53.949219 L 326.898438 53.953125 L 327.554688 53.953125 "/>
<path style=" stroke:none;fill-rule:nonzero;fill:rgb(44.705882%,70.588235%,95.294118%);fill-opacity:0.627451;" d="M 62.742188 53.953125 L 63.492188 53.953125 L 63.585938 53.949219 L 64.238281 53.949219 L 64.332031 53.945312 L 64.894531 53.945312 L 64.988281 53.941406 L 65.546875 53.941406 L 65.640625 53.9375 L 66.109375 53.9375 L 66.203125 53.933594 L 66.761719 53.933594 L 66.855469 53.929688 L 67.230469 53.929688 L 67.324219 53.925781 L 67.792969 53.925781 L 67.886719 53.921875 L 68.257812 53.921875 L 68.351562 53.917969 L 68.726562 53.917969 L 68.820312 53.914062 L 69.195312 53.914062 L 69.289062 53.910156 L 69.664062 53.910156 L 69.753906 53.90625 L 70.035156 53.90625 L 70.128906 53.902344 L 70.503906 53.902344 L 70.597656 53.898438 L 70.878906 53.898438 L 70.972656 53.894531 L 71.25 53.894531 L 71.34375 53.890625 L 71.625 53.890625 L 71.71875 53.886719 L 72 53.886719 L 72.09375 53.882812 L 72.28125 53.882812 L 72.375 53.878906 L 72.65625 53.878906 L 72.75 53.875 L 72.933594 53.875 L 73.027344 53.871094 L 73.308594 53.871094 L 73.402344 53.867188 L 73.589844 53.867188 L 73.683594 53.863281 L 73.871094 53.863281 L 73.964844 53.859375 L 74.152344 53.859375 L 74.246094 53.855469 L 74.429688 53.855469 L 74.523438 53.851562 L 74.710938 53.851562 L 74.804688 53.847656 L 74.992188 53.847656 L 75.085938 53.84375 L 75.273438 53.84375 L 75.367188 53.839844 L 75.554688 53.839844 L 75.648438 53.835938 L 75.742188 53.835938 L 75.832031 53.832031 L 76.019531 53.832031 L 76.113281 53.828125 L 76.207031 53.828125 L 76.300781 53.824219 L 76.488281 53.824219 L 76.582031 53.820312 L 76.675781 53.820312 L 76.769531 53.816406 L 76.957031 53.816406 L 77.050781 53.8125 L 77.144531 53.8125 L 77.238281 53.808594 L 77.421875 53.808594 L 77.515625 53.804688 L 77.609375 53.804688 L 77.703125 53.800781 L 77.796875 53.800781 L 77.890625 53.796875 L 77.984375 53.796875 L 78.078125 53.792969 L 78.171875 53.792969 L 78.265625 53.789062 L 78.453125 53.789062 L 78.546875 53.785156 L 78.640625 53.785156 L 78.734375 53.78125 L 78.824219 53.78125 L 78.917969 53.777344 L 79.011719 53.777344 L 79.105469 53.773438 L 79.199219 53.773438 L 79.292969 53.769531 L 79.386719 53.769531 L 79.480469 53.765625 L 79.574219 53.765625 L 79.667969 53.761719 L 79.761719 53.761719 L 79.855469 53.757812 L 79.949219 53.757812 L 80.136719 53.75 L 80.230469 53.75 L 80.320312 53.746094 L 80.414062 53.746094 L 80.507812 53.742188 L 80.601562 53.742188 L 80.695312 53.738281 L 80.789062 53.738281 L 80.976562 53.730469 L 81.070312 53.730469 L 81.164062 53.726562 L 81.257812 53.726562 L 81.445312 53.71875 L 81.539062 53.71875 L 81.632812 53.714844 L 81.726562 53.714844 L 81.816406 53.710938 L 81.910156 53.707031 L 82.003906 53.707031 L 82.191406 53.699219 L 82.285156 53.699219 L 82.378906 53.695312 L 82.472656 53.695312 L 82.660156 53.6875 L 82.753906 53.6875 L 83.035156 53.675781 L 83.128906 53.675781 L 83.222656 53.671875 L 83.3125 53.667969 L 83.40625 53.667969 L 83.59375 53.660156 L 83.6875 53.660156 L 83.96875 53.648438 L 84.0625 53.648438 L 84.34375 53.636719 L 84.4375 53.636719 L 84.71875 53.625 L 84.808594 53.621094 L 84.902344 53.621094 L 85.277344 53.605469 L 85.371094 53.605469 L 85.839844 53.585938 L 85.933594 53.585938 L 86.214844 53.574219 L 86.304688 53.570312 L 86.679688 53.554688 L 86.773438 53.554688 L 87.710938 53.515625 L 87.800781 53.511719 L 88.925781 53.464844 L 89.019531 53.457031 L 89.207031 53.449219 L 89.296875 53.445312 L 89.671875 53.429688 L 89.765625 53.421875 L 90.234375 53.402344 L 90.328125 53.394531 L 90.703125 53.378906 L 90.792969 53.371094 L 91.074219 53.359375 L 91.167969 53.351562 L 91.355469 53.34375 L 91.449219 53.335938 L 91.636719 53.328125 L 91.730469 53.320312 L 91.917969 53.3125 L 92.011719 53.304688 L 92.199219 53.296875 L 92.289062 53.289062 L 92.382812 53.285156 L 92.476562 53.277344 L 92.664062 53.269531 L 92.757812 53.261719 L 92.851562 53.257812 L 92.945312 53.25 L 93.039062 53.246094 L 93.132812 53.238281 L 93.226562 53.234375 L 93.320312 53.226562 L 93.414062 53.222656 L 93.507812 53.214844 L 93.601562 53.210938 L 93.695312 53.203125 L 93.785156 53.199219 L 93.878906 53.191406 L 93.972656 53.1875 L 94.066406 53.179688 L 94.160156 53.175781 L 94.347656 53.160156 L 94.441406 53.15625 L 94.535156 53.148438 L 94.628906 53.144531 L 94.816406 53.128906 L 94.910156 53.125 L 95.097656 53.109375 L 95.191406 53.105469 L 95.28125 53.097656 L 95.46875 53.082031 L 95.5625 53.078125 L 95.84375 53.054688 L 95.9375 53.050781 L 96.40625 53.011719 L 96.5 53.007812 L 96.6875 52.992188 L 96.777344 52.984375 L 98.183594 52.867188 L 98.273438 52.859375 L 98.648438 52.828125 L 98.742188 52.816406 L 99.117188 52.785156 L 99.210938 52.773438 L 99.492188 52.75 L 99.585938 52.738281 L 99.679688 52.730469 L 99.769531 52.722656 L 99.863281 52.710938 L 100.050781 52.695312 L 100.144531 52.683594 L 100.332031 52.667969 L 100.425781 52.65625 L 100.519531 52.648438 L 100.613281 52.636719 L 100.707031 52.628906 L 100.800781 52.617188 L 100.894531 52.609375 L 100.988281 52.597656 L 101.082031 52.589844 L 101.175781 52.578125 L 101.265625 52.570312 L 101.359375 52.558594 L 101.453125 52.550781 L 101.546875 52.539062 L 101.640625 52.53125 L 101.828125 52.507812 L 101.921875 52.5 L 102.109375 52.476562 L 102.203125 52.46875 L 102.484375 52.433594 L 102.578125 52.425781 L 102.671875 52.414062 L 102.761719 52.402344 L 102.949219 52.378906 L 103.042969 52.371094 L 104.167969 52.230469 L 104.257812 52.21875 L 104.632812 52.171875 L 104.726562 52.15625 L 105.101562 52.109375 L 105.195312 52.09375 L 105.476562 52.058594 L 105.570312 52.042969 L 105.664062 52.03125 L 105.753906 52.019531 L 105.847656 52.003906 L 105.941406 51.992188 L 106.035156 51.976562 L 106.222656 51.953125 L 106.316406 51.9375 L 106.410156 51.925781 L 106.503906 51.910156 L 106.597656 51.898438 L 106.785156 51.867188 L 106.878906 51.855469 L 106.972656 51.839844 L 107.066406 51.828125 L 107.160156 51.8125 L 107.25 51.796875 L 107.34375 51.785156 L 107.625 51.738281 L 107.71875 51.726562 L 108.1875 51.648438 L 108.28125 51.636719 L 108.75 51.558594 L 108.839844 51.542969 L 109.214844 51.480469 L 109.308594 51.460938 L 109.683594 51.398438 L 109.777344 51.378906 L 109.871094 51.363281 L 109.871094 54 L 62.742188 54 Z M 62.742188 53.953125 "/>
<path style="fill:none;stroke-width:0.0075;stroke-linecap:round;stroke-linejoin:round;stroke:rgb(0%,0%,0%);stroke-opacity:1;stroke-miterlimit:10;" d="M 62.742188 53.953125 L 63.492188 53.953125 L 63.585938 53.949219 L 64.238281 53.949219 L 64.332031 53.945312 L 64.894531 53.945312 L 64.988281 53.941406 L 65.546875 53.941406 L 65.640625 53.9375 L 66.109375 53.9375 L 66.203125 53.933594 L 66.761719 53.933594 L 66.855469 53.929688 L 67.230469 53.929688 L 67.324219 53.925781 L 67.792969 53.925781 L 67.886719 53.921875 L 68.257812 53.921875 L 68.351562 53.917969 L 68.726562 53.917969 L 68.820312 53.914062 L 69.195312 53.914062 L 69.289062 53.910156 L 69.664062 53.910156 L 69.753906 53.90625 L 70.035156 53.90625 L 70.128906 53.902344 L 70.503906 53.902344 L 70.597656 53.898438 L 70.878906 53.898438 L 70.972656 53.894531 L 71.25 53.894531 L 71.34375 53.890625 L 71.625 53.890625 L 71.71875 53.886719 L 72 53.886719 L 72.09375 53.882812 L 72.28125 53.882812 L 72.375 53.878906 L 72.65625 53.878906 L 72.75 53.875 L 72.933594 53.875 L 73.027344 53.871094 L 73.308594 53.871094 L 73.402344 53.867188 L 73.589844 53.867188 L 73.683594 53.863281 L 73.871094 53.863281 L 73.964844 53.859375 L 74.152344 53.859375 L 74.246094 53.855469 L 74.429688 53.855469 L 74.523438 53.851562 L 74.710938 53.851562 L 74.804688 53.847656 L 74.992188 53.847656 L 75.085938 53.84375 L 75.273438 53.84375 L 75.367188 53.839844 L 75.554688 53.839844 L 75.648438 53.835938 L 75.742188 53.835938 L 75.832031 53.832031 L 76.019531 53.832031 L 76.113281 53.828125 L 76.207031 53.828125 L 76.300781 53.824219 L 76.488281 53.824219 L 76.582031 53.820312 L 76.675781 53.820312 L 76.769531 53.816406 L 76.957031 53.816406 L 77.050781 53.8125 L 77.144531 53.8125 L 77.238281 53.808594 L 77.421875 53.808594 L 77.515625 53.804688 L 77.609375 53.804688 L 77.703125 53.800781 L 77.796875 53.800781 L 77.890625 53.796875 L 77.984375 53.796875 L 78.078125 53.792969 L 78.171875 53.792969 L 78.265625 53.789062 L 78.453125 53.789062 L 78.546875 53.785156 L 78.640625 53.785156 L 78.734375 53.78125 L 78.824219 53.78125 L 78.917969 53.777344 L 79.011719 53.777344 L 79.105469 53.773438 L 79.199219 53.773438 L 79.292969 53.769531 L 79.386719 53.769531 L 79.480469 53.765625 L 79.574219 53.765625 L 79.667969 53.761719 L 79.761719 53.761719 L 79.855469 53.757812 L 79.949219 53.757812 L 80.136719 53.75 L 80.230469 53.75 L 80.320312 53.746094 L 80.414062 53.746094 L 80.507812 53.742188 L 80.601562 53.742188 L 80.695312 53.738281 L 80.789062 53.738281 L 80.976562 53.730469 L 81.070312 53.730469 L 81.164062 53.726562 L 81.257812 53.726562 L 81.445312 53.71875 L 81.539062 53.71875 L 81.632812 53.714844 L 81.726562 53.714844 L 81.816406 53.710938 L 81.910156 53.707031 L 82.003906 53.707031 L 82.191406 53.699219 L 82.285156 53.699219 L 82.378906 53.695312 L 82.472656 53.695312 L 82.660156 53.6875 L 82.753906 53.6875 L 83.035156 53.675781 L 83.128906 53.675781 L 83.222656 53.671875 L 83.3125 53.667969 L 83.40625 53.667969 L 83.59375 53.660156 L 83.6875 53.660156 L 83.96875 53.648438 L 84.0625 53.648438 L 84.34375 53.636719 L 84.4375 53.636719 L 84.71875 53.625 L 84.808594 53.621094 L 84.902344 53.621094 L 85.277344 53.605469 L 85.371094 53.605469 L 85.839844 53.585938 L 85.933594 53.585938 L 86.214844 53.574219 L 86.304688 53.570312 L 86.679688 53.554688 L 86.773438 53.554688 L 87.710938 53.515625 L 87.800781 53.511719 L 88.925781 53.464844 L 89.019531 53.457031 L 89.207031 53.449219 L 89.296875 53.445312 L 89.671875 53.429688 L 89.765625 53.421875 L 90.234375 53.402344 L 90.328125 53.394531 L 90.703125 53.378906 L 90.792969 53.371094 L 91.074219 53.359375 L 91.167969 53.351562 L 91.355469 53.34375 L 91.449219 53.335938 L 91.636719 53.328125 L 91.730469 53.320312 L 91.917969 53.3125 L 92.011719 53.304688 L 92.199219 53.296875 L 92.289062 53.289062 L 92.382812 53.285156 L 92.476562 53.277344 L 92.664062 53.269531 L 92.757812 53.261719 L 92.851562 53.257812 L 92.945312 53.25 L 93.039062 53.246094 L 93.132812 53.238281 L 93.226562 53.234375 L 93.320312 53.226562 L 93.414062 53.222656 L 93.507812 53.214844 L 93.601562 53.210938 L 93.695312 53.203125 L 93.785156 53.199219 L 93.878906 53.191406 L 93.972656 53.1875 L 94.066406 53.179688 L 94.160156 53.175781 L 94.347656 53.160156 L 94.441406 53.15625 L 94.535156 53.148438 L 94.628906 53.144531 L 94.816406 53.128906 L 94.910156 53.125 L 95.097656 53.109375 L 95.191406 53.105469 L 95.28125 53.097656 L 95.46875 53.082031 L 95.5625 53.078125 L 95.84375 53.054688 L 95.9375 53.050781 L 96.40625 53.011719 L 96.5 53.007812 L 96.6875 52.992188 L 96.777344 52.984375 L 98.183594 52.867188 L 98.273438 52.859375 L 98.648438 52.828125 L 98.742188 52.816406 L 99.117188 52.785156 L 99.210938 52.773438 L 99.492188 52.75 L 99.585938 52.738281 L 99.679688 52.730469 L 99.769531 52.722656 L 99.863281 52.710938 L 100.050781 52.695312 L 100.144531 52.683594 L 100.332031 52.667969 L 100.425781 52.65625 L 100.519531 52.648438 L 100.613281 52.636719 L 100.707031 52.628906 L 100.800781 52.617188 L 100.894531 52.609375 L 100.988281 52.597656 L 101.082031 52.589844 L 101.175781 52.578125 L 101.265625 52.570312 L 101.359375 52.558594 L 101.453125 52.550781 L 101.546875 52.539062 L 101.640625 52.53125 L 101.828125 52.507812 L 101.921875 52.5 L 102.109375 52.476562 L 102.203125 52.46875 L 102.484375 52.433594 L 102.578125 52.425781 L 102.671875 52.414062 L 102.761719 52.402344 L 102.949219 52.378906 L 103.042969 52.371094 L 104.167969 52.230469 L 104.257812 52.21875 L 104.632812 52.171875 L 104.726562 52.15625 L 105.101562 52.109375 L 105.195312 52.09375 L 105.476562 52.058594 L 105.570312 52.042969 L 105.664062 52.03125 L 105.753906 52.019531 L 105.847656 52.003906 L 105.941406 51.992188 L 106.035156 51.976562 L 106.222656 51.953125 L 106.316406 51.9375 L 106.410156 51.925781 L 106.503906 51.910156 L 106.597656 51.898438 L 106.785156 51.867188 L 106.878906 51.855469 L 106.972656 51.839844 L 107.066406 51.828125 L 107.160156 51.8125 L 107.25 51.796875 L 107.34375 51.785156 L 107.625 51.738281 L 107.71875 51.726562 L 108.1875 51.648438 L 108.28125 51.636719 L 108.75 51.558594 L 108.839844 51.542969 L 109.214844 51.480469 L 109.308594 51.460938 L 109.683594 51.398438 L 109.777344 51.378906 L 109.871094 51.363281 "/>
<path style="fill:none;stroke-width:0.0075;stroke-linecap:round;stroke-linejoin:round;stroke:rgb(0%,0%,0%);stroke-opacity:1;stroke-miterlimit:10;" d="M 109.964844 51.347656 L 110.058594 51.332031 L 110.152344 51.3125 L 110.246094 51.296875 L 110.335938 51.28125 L 110.429688 51.261719 L 110.523438 51.246094 L 110.617188 51.226562 L 110.710938 51.210938 L 110.804688 51.191406 L 110.898438 51.175781 L 110.992188 51.15625 L 111.085938 51.140625 L 111.179688 51.121094 L 111.273438 51.105469 L 111.460938 51.066406 L 111.554688 51.050781 L 111.742188 51.011719 L 111.832031 50.992188 L 111.925781 50.976562 L 112.394531 50.878906 L 112.488281 50.863281 L 113.050781 50.746094 L 113.144531 50.722656 L 113.238281 50.703125 L 113.328125 50.683594 L 113.609375 50.625 L 113.703125 50.601562 L 113.890625 50.5625 L 113.984375 50.539062 L 114.171875 50.5 L 114.265625 50.476562 L 114.453125 50.4375 L 114.546875 50.414062 L 114.640625 50.394531 L 114.734375 50.371094 L 114.824219 50.347656 L 114.917969 50.328125 L 115.011719 50.304688 L 115.105469 50.285156 L 115.292969 50.238281 L 115.386719 50.21875 L 115.761719 50.125 L 115.855469 50.105469 L 116.230469 50.011719 L 116.320312 49.988281 L 116.695312 49.894531 L 116.789062 49.867188 L 117.164062 49.773438 L 117.257812 49.746094 L 117.445312 49.699219 L 117.539062 49.671875 L 117.726562 49.625 L 117.816406 49.597656 L 117.910156 49.574219 L 118.003906 49.546875 L 118.097656 49.523438 L 118.285156 49.46875 L 118.378906 49.445312 L 118.566406 49.390625 L 118.660156 49.367188 L 118.941406 49.285156 L 119.035156 49.261719 L 119.222656 49.207031 L 119.3125 49.179688 L 119.875 49.015625 L 119.96875 48.984375 L 120.34375 48.875 L 120.4375 48.84375 L 120.625 48.789062 L 120.71875 48.757812 L 120.808594 48.730469 L 120.902344 48.699219 L 120.996094 48.671875 L 121.089844 48.640625 L 121.183594 48.613281 L 121.277344 48.582031 L 121.371094 48.554688 L 121.652344 48.460938 L 121.746094 48.433594 L 122.121094 48.308594 L 122.214844 48.28125 L 122.304688 48.25 L 122.585938 48.15625 L 122.679688 48.121094 L 123.148438 47.964844 L 123.242188 47.929688 L 123.429688 47.867188 L 123.523438 47.832031 L 123.617188 47.800781 L 123.710938 47.765625 L 123.800781 47.734375 L 123.894531 47.703125 L 124.082031 47.632812 L 124.175781 47.601562 L 124.363281 47.53125 L 124.457031 47.5 L 124.738281 47.394531 L 124.832031 47.363281 L 125.207031 47.222656 L 125.296875 47.1875 L 125.484375 47.117188 L 125.578125 47.078125 L 125.953125 46.9375 L 126.046875 46.898438 L 126.234375 46.828125 L 126.328125 46.789062 L 126.421875 46.753906 L 126.515625 46.714844 L 126.609375 46.679688 L 126.703125 46.640625 L 126.792969 46.605469 L 126.980469 46.527344 L 127.074219 46.492188 L 127.355469 46.375 L 127.449219 46.339844 L 128.199219 46.027344 L 128.289062 45.984375 L 128.570312 45.867188 L 128.664062 45.824219 L 128.851562 45.746094 L 128.945312 45.703125 L 129.039062 45.664062 L 129.132812 45.621094 L 129.226562 45.582031 L 129.320312 45.539062 L 129.414062 45.5 L 129.601562 45.414062 L 129.695312 45.375 L 129.785156 45.332031 L 130.066406 45.203125 L 130.160156 45.164062 L 130.628906 44.949219 L 130.722656 44.902344 L 131.097656 44.730469 L 131.191406 44.683594 L 131.28125 44.640625 L 131.375 44.597656 L 131.46875 44.550781 L 131.5625 44.507812 L 131.65625 44.460938 L 131.75 44.417969 L 131.84375 44.371094 L 131.9375 44.328125 L 132.125 44.234375 L 132.21875 44.191406 L 132.6875 43.957031 L 132.777344 43.910156 L 132.871094 43.867188 L 132.964844 43.816406 L 133.527344 43.535156 L 133.621094 43.484375 L 133.808594 43.390625 L 133.902344 43.339844 L 133.996094 43.292969 L 134.089844 43.242188 L 134.183594 43.195312 L 134.273438 43.144531 L 134.367188 43.097656 L 134.460938 43.046875 L 134.554688 43 L 134.835938 42.847656 L 134.929688 42.800781 L 135.679688 42.394531 L 135.769531 42.34375 L 135.863281 42.292969 L 135.957031 42.238281 L 136.238281 42.085938 L 136.332031 42.03125 L 136.425781 41.980469 L 136.519531 41.925781 L 136.613281 41.875 L 136.707031 41.820312 L 136.800781 41.769531 L 136.894531 41.714844 L 136.988281 41.664062 L 137.175781 41.554688 L 137.265625 41.503906 L 137.640625 41.285156 L 137.734375 41.234375 L 138.109375 41.015625 L 138.203125 40.957031 L 138.578125 40.738281 L 138.671875 40.679688 L 138.761719 40.625 L 138.855469 40.570312 L 138.949219 40.511719 L 139.136719 40.402344 L 139.324219 40.285156 L 139.417969 40.230469 L 139.511719 40.171875 L 139.605469 40.117188 L 139.792969 40 L 139.886719 39.945312 L 140.167969 39.769531 L 140.257812 39.710938 L 141.195312 39.125 L 141.289062 39.0625 L 141.476562 38.945312 L 141.570312 38.882812 L 141.664062 38.824219 L 141.753906 38.761719 L 141.847656 38.703125 L 141.941406 38.640625 L 142.035156 38.582031 L 142.128906 38.519531 L 142.222656 38.460938 L 142.410156 38.335938 L 142.503906 38.277344 L 142.878906 38.027344 L 142.972656 37.96875 L 143.160156 37.84375 L 143.25 37.78125 L 143.625 37.53125 L 143.71875 37.464844 L 144 37.277344 L 144.09375 37.210938 L 144.375 37.023438 L 144.46875 36.957031 L 144.5625 36.894531 L 144.65625 36.828125 L 144.75 36.765625 L 144.839844 36.699219 L 144.933594 36.636719 L 145.121094 36.503906 L 145.214844 36.441406 L 145.402344 36.308594 L 145.496094 36.246094 L 145.871094 35.980469 L 145.964844 35.917969 L 146.246094 35.71875 L 146.335938 35.652344 L 146.617188 35.453125 L 146.710938 35.382812 L 147.085938 35.117188 L 147.179688 35.046875 L 147.367188 34.914062 L 147.460938 34.84375 L 147.648438 34.710938 L 147.742188 34.640625 L 147.832031 34.574219 L 147.925781 34.503906 L 148.019531 34.4375 L 148.113281 34.367188 L 148.207031 34.300781 L 148.300781 34.230469 L 148.394531 34.164062 L 148.582031 34.023438 L 148.675781 33.957031 L 148.957031 33.746094 L 149.050781 33.679688 L 149.238281 33.539062 L 149.328125 33.46875 L 150.546875 32.554688 L 150.640625 32.480469 L 150.734375 32.410156 L 150.824219 32.339844 L 151.011719 32.199219 L 151.105469 32.125 L 151.292969 31.984375 L 151.386719 31.910156 L 151.480469 31.839844 L 151.574219 31.765625 L 151.761719 31.625 L 151.855469 31.550781 L 151.949219 31.480469 L 152.042969 31.40625 L 152.136719 31.335938 L 152.230469 31.261719 L 152.320312 31.191406 L 152.507812 31.042969 L 152.601562 30.972656 L 152.789062 30.824219 L 152.882812 30.753906 L 153.070312 30.605469 L 153.164062 30.535156 L 153.445312 30.3125 L 153.539062 30.242188 L 153.726562 30.09375 L 153.816406 30.019531 L 153.910156 29.945312 L 154.003906 29.875 L 155.222656 28.910156 L 155.3125 28.835938 L 155.875 28.390625 L 155.96875 28.3125 L 156.53125 27.867188 L 156.625 27.789062 L 156.71875 27.714844 L 156.808594 27.640625 L 156.996094 27.492188 L 157.089844 27.414062 L 157.371094 27.191406 L 157.464844 27.113281 L 157.746094 26.890625 L 157.839844 26.8125 L 158.027344 26.664062 L 158.121094 26.585938 L 158.214844 26.511719 L 158.304688 26.4375 L 158.398438 26.363281 L 158.492188 26.285156 L 158.679688 26.136719 L 158.773438 26.058594 L 158.960938 25.910156 L 159.054688 25.832031 L 159.242188 25.683594 L 159.335938 25.605469 L 159.523438 25.457031 L 159.617188 25.378906 L 159.710938 25.304688 L 159.800781 25.230469 L 159.894531 25.152344 L 160.082031 25.003906 L 160.175781 24.925781 L 160.363281 24.777344 L 160.457031 24.699219 L 160.644531 24.550781 L 160.738281 24.472656 L 161.019531 24.25 L 161.113281 24.171875 L 161.207031 24.097656 L 161.296875 24.023438 L 161.390625 23.945312 L 161.671875 23.722656 L 161.765625 23.644531 L 162.046875 23.421875 L 162.140625 23.34375 L 162.421875 23.121094 L 162.515625 23.042969 L 162.703125 22.894531 L 162.792969 22.820312 L 162.980469 22.671875 L 163.074219 22.59375 L 163.824219 22 L 163.917969 21.921875 L 164.199219 21.699219 L 164.289062 21.625 L 164.476562 21.476562 L 164.570312 21.40625 L 165.320312 20.8125 L 165.414062 20.742188 L 165.695312 20.519531 L 165.785156 20.449219 L 166.066406 20.226562 L 166.160156 20.15625 L 166.253906 20.082031 L 166.347656 20.011719 L 166.535156 19.863281 L 166.628906 19.792969 L 166.722656 19.71875 L 166.816406 19.648438 L 166.910156 19.574219 L 167.003906 19.503906 L 167.097656 19.429688 L 167.191406 19.359375 L 167.28125 19.285156 L 167.46875 19.144531 L 167.5625 19.070312 L 167.84375 18.859375 L 167.9375 18.785156 L 168.40625 18.433594 L 168.5 18.359375 L 168.6875 18.21875 L 168.777344 18.148438 L 168.871094 18.078125 L 168.964844 18.011719 L 169.433594 17.660156 L 169.527344 17.59375 L 169.808594 17.382812 L 169.902344 17.316406 L 169.996094 17.246094 L 170.089844 17.179688 L 170.183594 17.109375 L 170.273438 17.042969 L 170.367188 16.972656 L 170.460938 16.90625 L 170.554688 16.835938 L 170.742188 16.703125 L 170.835938 16.632812 L 171.210938 16.367188 L 171.304688 16.296875 L 171.679688 16.03125 L 171.769531 15.964844 L 171.863281 15.902344 L 172.238281 15.636719 L 172.332031 15.574219 L 172.519531 15.441406 L 172.613281 15.378906 L 172.707031 15.3125 L 172.800781 15.25 L 172.894531 15.183594 L 173.082031 15.058594 L 173.175781 14.992188 L 173.265625 14.929688 L 173.453125 14.804688 L 173.546875 14.738281 L 174.109375 14.363281 L 174.203125 14.304688 L 174.484375 14.117188 L 174.578125 14.058594 L 174.671875 13.996094 L 174.761719 13.933594 L 174.949219 13.816406 L 175.042969 13.753906 L 175.136719 13.695312 L 175.230469 13.632812 L 176.167969 13.046875 L 176.257812 12.988281 L 176.351562 12.929688 L 176.445312 12.875 L 176.539062 12.816406 L 176.632812 12.761719 L 176.726562 12.703125 L 176.820312 12.648438 L 176.914062 12.589844 L 177.101562 12.480469 L 177.195312 12.421875 L 177.664062 12.148438 L 177.753906 12.09375 L 177.847656 12.039062 L 177.941406 11.988281 L 178.128906 11.878906 L 178.222656 11.828125 L 178.316406 11.773438 L 178.410156 11.722656 L 178.503906 11.667969 L 178.597656 11.617188 L 178.691406 11.5625 L 179.160156 11.308594 L 179.25 11.257812 L 179.625 11.054688 L 179.71875 11.007812 L 179.8125 10.957031 L 179.90625 10.910156 L 180 10.859375 L 180.09375 10.8125 L 180.1875 10.761719 L 180.75 10.480469 L 180.839844 10.433594 L 181.121094 10.292969 L 181.214844 10.25 L 181.308594 10.203125 L 181.402344 10.160156 L 181.496094 10.113281 L 181.683594 10.027344 L 181.777344 9.980469 L 182.246094 9.765625 L 182.335938 9.722656 L 182.429688 9.683594 L 182.617188 9.597656 L 182.710938 9.558594 L 182.804688 9.515625 L 182.898438 9.476562 L 182.992188 9.433594 L 183.742188 9.121094 L 183.832031 9.082031 L 183.925781 9.046875 L 184.019531 9.007812 L 184.113281 8.972656 L 184.207031 8.933594 L 184.394531 8.863281 L 184.488281 8.824219 L 184.957031 8.648438 L 185.050781 8.617188 L 185.238281 8.546875 L 185.328125 8.515625 L 185.421875 8.480469 L 185.515625 8.449219 L 185.609375 8.414062 L 186.265625 8.195312 L 186.359375 8.167969 L 186.546875 8.105469 L 186.640625 8.078125 L 186.734375 8.046875 L 186.824219 8.019531 L 187.011719 7.964844 L 187.105469 7.933594 L 187.199219 7.90625 L 187.292969 7.882812 L 187.667969 7.773438 L 187.761719 7.75 L 187.855469 7.722656 L 188.042969 7.675781 L 188.136719 7.648438 L 188.230469 7.625 L 188.320312 7.601562 L 188.601562 7.53125 L 188.695312 7.511719 L 188.882812 7.464844 L 188.976562 7.445312 L 189.070312 7.421875 L 189.257812 7.382812 L 189.351562 7.359375 L 189.726562 7.28125 L 189.816406 7.265625 L 190.003906 7.226562 L 190.097656 7.210938 L 190.191406 7.191406 L 190.285156 7.175781 L 190.378906 7.15625 L 190.941406 7.0625 L 191.035156 7.050781 L 191.222656 7.019531 L 191.3125 7.007812 L 191.40625 6.992188 L 192.25 6.886719 L 192.34375 6.878906 L 192.4375 6.867188 L 192.53125 6.859375 L 192.625 6.847656 L 192.71875 6.839844 L 192.808594 6.832031 L 193.277344 6.792969 L 193.371094 6.789062 L 193.464844 6.78125 L 193.558594 6.777344 L 193.652344 6.769531 L 193.839844 6.761719 L 193.933594 6.753906 L 194.214844 6.742188 L 194.304688 6.742188 L 194.492188 6.734375 L 194.585938 6.734375 L 194.679688 6.730469 L 194.773438 6.730469 L 194.867188 6.726562 L 195.523438 6.726562 L 195.617188 6.730469 L 195.710938 6.730469 L 195.800781 6.734375 L 195.894531 6.734375 L 196.175781 6.746094 L 196.269531 6.746094 L 196.363281 6.75 L 196.457031 6.757812 L 196.738281 6.769531 L 196.832031 6.777344 L 196.925781 6.78125 L 197.113281 6.796875 L 197.207031 6.800781 L 197.296875 6.808594 L 197.671875 6.839844 L 197.765625 6.851562 L 197.953125 6.867188 L 198.140625 6.890625 L 198.234375 6.898438 L 198.703125 6.957031 L 198.792969 6.96875 L 198.886719 6.980469 L 198.980469 6.996094 L 199.074219 7.007812 L 199.167969 7.023438 L 199.261719 7.035156 L 199.449219 7.066406 L 199.542969 7.078125 L 199.824219 7.125 L 199.917969 7.144531 L 200.105469 7.175781 L 200.199219 7.195312 L 200.289062 7.210938 L 200.382812 7.230469 L 200.476562 7.246094 L 201.226562 7.402344 L 201.320312 7.425781 L 201.414062 7.445312 L 201.507812 7.46875 L 201.601562 7.488281 L 201.695312 7.511719 L 201.785156 7.535156 L 202.347656 7.675781 L 202.441406 7.703125 L 202.628906 7.75 L 202.816406 7.804688 L 202.910156 7.828125 L 203.191406 7.910156 L 203.28125 7.9375 L 203.46875 7.992188 L 203.5625 8.023438 L 203.75 8.078125 L 203.84375 8.109375 L 203.9375 8.136719 L 204.6875 8.386719 L 204.777344 8.417969 L 204.871094 8.449219 L 204.964844 8.484375 L 205.058594 8.515625 L 205.246094 8.585938 L 205.339844 8.617188 L 205.996094 8.863281 L 206.089844 8.902344 L 206.183594 8.9375 L 206.273438 8.972656 L 206.367188 9.011719 L 206.460938 9.046875 L 206.742188 9.164062 L 206.835938 9.199219 L 207.023438 9.277344 L 207.117188 9.320312 L 207.398438 9.4375 L 207.492188 9.480469 L 207.679688 9.558594 L 207.769531 9.601562 L 207.863281 9.644531 L 207.957031 9.683594 L 208.707031 10.027344 L 208.800781 10.074219 L 208.894531 10.117188 L 208.988281 10.164062 L 209.082031 10.207031 L 209.175781 10.253906 L 209.265625 10.296875 L 210.203125 10.765625 L 210.296875 10.816406 L 210.390625 10.863281 L 210.484375 10.914062 L 210.578125 10.960938 L 210.671875 11.011719 L 210.761719 11.058594 L 211.699219 11.566406 L 211.792969 11.621094 L 211.886719 11.671875 L 211.980469 11.726562 L 212.074219 11.777344 L 212.167969 11.832031 L 212.257812 11.882812 L 212.445312 11.992188 L 212.539062 12.042969 L 213.101562 12.371094 L 213.195312 12.429688 L 213.476562 12.59375 L 213.570312 12.652344 L 213.664062 12.707031 L 213.753906 12.765625 L 213.847656 12.820312 L 214.035156 12.9375 L 214.128906 12.992188 L 215.066406 13.578125 L 215.160156 13.640625 L 215.25 13.699219 L 215.34375 13.757812 L 215.4375 13.820312 L 215.53125 13.878906 L 215.625 13.941406 L 215.71875 14 L 215.90625 14.125 L 216 14.183594 L 216.375 14.433594 L 216.46875 14.492188 L 216.65625 14.617188 L 216.75 14.683594 L 216.839844 14.746094 L 217.121094 14.933594 L 217.214844 15 L 217.402344 15.125 L 217.496094 15.191406 L 217.589844 15.253906 L 217.683594 15.320312 L 217.777344 15.382812 L 217.871094 15.449219 L 217.964844 15.511719 L 218.152344 15.644531 L 218.246094 15.707031 L 218.335938 15.773438 L 219.367188 16.503906 L 219.460938 16.574219 L 219.742188 16.773438 L 219.832031 16.84375 L 219.925781 16.910156 L 220.019531 16.980469 L 220.113281 17.046875 L 220.207031 17.117188 L 220.300781 17.183594 L 220.394531 17.253906 L 220.488281 17.320312 L 220.675781 17.460938 L 220.769531 17.527344 L 221.050781 17.738281 L 221.144531 17.804688 L 221.238281 17.875 L 221.328125 17.945312 L 222.265625 18.648438 L 222.359375 18.722656 L 222.640625 18.933594 L 222.734375 19.007812 L 222.824219 19.078125 L 222.917969 19.148438 L 223.011719 19.222656 L 223.199219 19.363281 L 223.292969 19.4375 L 223.386719 19.507812 L 223.480469 19.582031 L 223.574219 19.652344 L 223.667969 19.726562 L 223.761719 19.796875 L 223.855469 19.871094 L 223.949219 19.941406 L 224.136719 20.089844 L 224.230469 20.160156 L 224.320312 20.234375 L 224.414062 20.308594 L 224.507812 20.378906 L 224.789062 20.601562 L 224.882812 20.671875 L 225.257812 20.96875 L 225.351562 21.039062 L 225.726562 21.335938 L 225.816406 21.410156 L 227.035156 22.375 L 227.128906 22.453125 L 227.222656 22.527344 L 227.3125 22.601562 L 227.59375 22.824219 L 227.6875 22.902344 L 228.0625 23.199219 L 228.15625 23.277344 L 228.4375 23.5 L 228.53125 23.578125 L 228.71875 23.726562 L 228.808594 23.800781 L 228.902344 23.878906 L 229.183594 24.101562 L 229.277344 24.179688 L 229.464844 24.328125 L 229.558594 24.40625 L 229.746094 24.554688 L 229.839844 24.632812 L 230.027344 24.78125 L 230.121094 24.859375 L 230.214844 24.933594 L 230.304688 25.007812 L 230.398438 25.085938 L 230.585938 25.234375 L 230.679688 25.3125 L 230.867188 25.460938 L 230.960938 25.539062 L 231.148438 25.6875 L 231.242188 25.765625 L 231.429688 25.914062 L 231.523438 25.992188 L 231.710938 26.140625 L 231.800781 26.214844 L 231.894531 26.292969 L 232.082031 26.441406 L 232.175781 26.519531 L 232.363281 26.667969 L 232.457031 26.746094 L 232.738281 26.96875 L 232.832031 27.046875 L 233.113281 27.269531 L 233.207031 27.347656 L 233.296875 27.421875 L 233.578125 27.644531 L 233.671875 27.722656 L 234.046875 28.019531 L 234.140625 28.097656 L 234.703125 28.542969 L 234.792969 28.617188 L 234.886719 28.691406 L 234.980469 28.769531 L 235.917969 29.511719 L 236.011719 29.582031 L 236.199219 29.730469 L 236.289062 29.804688 L 236.664062 30.101562 L 236.757812 30.171875 L 237.039062 30.394531 L 237.132812 30.464844 L 237.414062 30.6875 L 237.507812 30.757812 L 237.695312 30.90625 L 237.785156 30.976562 L 237.878906 31.050781 L 237.972656 31.121094 L 238.160156 31.269531 L 238.253906 31.339844 L 238.347656 31.414062 L 238.441406 31.484375 L 238.535156 31.558594 L 238.722656 31.699219 L 238.816406 31.773438 L 238.910156 31.84375 L 239.003906 31.917969 L 239.191406 32.058594 L 239.28125 32.132812 L 239.5625 32.34375 L 239.65625 32.417969 L 240.03125 32.699219 L 240.125 32.773438 L 240.6875 33.195312 L 240.777344 33.265625 L 240.964844 33.40625 L 241.058594 33.472656 L 241.527344 33.824219 L 241.621094 33.890625 L 241.808594 34.03125 L 241.902344 34.097656 L 242.089844 34.238281 L 242.183594 34.304688 L 242.273438 34.375 L 242.367188 34.441406 L 242.460938 34.511719 L 242.554688 34.578125 L 242.648438 34.648438 L 242.835938 34.78125 L 242.929688 34.851562 L 243.117188 34.984375 L 243.210938 35.054688 L 243.492188 35.253906 L 243.585938 35.324219 L 243.679688 35.390625 L 243.769531 35.457031 L 244.613281 36.054688 L 244.707031 36.117188 L 244.988281 36.316406 L 245.082031 36.378906 L 245.175781 36.445312 L 245.265625 36.511719 L 245.359375 36.574219 L 245.546875 36.707031 L 245.640625 36.769531 L 245.734375 36.835938 L 245.921875 36.960938 L 246.015625 37.027344 L 246.203125 37.152344 L 246.296875 37.21875 L 246.578125 37.40625 L 246.671875 37.472656 L 246.761719 37.535156 L 247.605469 38.097656 L 247.699219 38.15625 L 247.980469 38.34375 L 248.074219 38.402344 L 248.167969 38.464844 L 248.257812 38.527344 L 248.351562 38.585938 L 248.445312 38.648438 L 248.539062 38.707031 L 248.632812 38.769531 L 248.820312 38.886719 L 248.914062 38.949219 L 249.101562 39.066406 L 249.195312 39.128906 L 249.570312 39.363281 L 249.664062 39.425781 L 249.753906 39.484375 L 250.035156 39.660156 L 250.128906 39.714844 L 250.503906 39.949219 L 250.597656 40.003906 L 250.785156 40.121094 L 250.878906 40.175781 L 251.066406 40.292969 L 251.160156 40.347656 L 251.25 40.40625 L 251.34375 40.460938 L 251.4375 40.519531 L 251.625 40.628906 L 251.71875 40.6875 L 252.09375 40.90625 L 252.1875 40.964844 L 252.75 41.292969 L 252.839844 41.34375 L 253.121094 41.507812 L 253.214844 41.558594 L 253.402344 41.667969 L 253.496094 41.71875 L 253.683594 41.828125 L 253.871094 41.929688 L 253.964844 41.984375 L 254.058594 42.035156 L 254.152344 42.089844 L 254.246094 42.140625 L 254.335938 42.191406 L 254.429688 42.242188 L 254.523438 42.296875 L 255.460938 42.804688 L 255.554688 42.851562 L 255.742188 42.953125 L 255.832031 43.003906 L 255.925781 43.050781 L 256.019531 43.101562 L 256.113281 43.148438 L 256.207031 43.199219 L 256.300781 43.246094 L 256.394531 43.296875 L 256.488281 43.34375 L 256.582031 43.394531 L 256.769531 43.488281 L 256.863281 43.539062 L 257.238281 43.726562 L 257.328125 43.773438 L 258.078125 44.148438 L 258.171875 44.191406 L 258.359375 44.285156 L 258.453125 44.328125 L 258.640625 44.421875 L 258.734375 44.464844 L 258.824219 44.511719 L 259.011719 44.597656 L 259.105469 44.644531 L 259.292969 44.730469 L 259.386719 44.777344 L 259.855469 44.992188 L 259.949219 45.039062 L 260.042969 45.082031 L 260.136719 45.121094 L 260.230469 45.164062 L 260.320312 45.207031 L 260.601562 45.335938 L 260.695312 45.375 L 260.882812 45.460938 L 260.976562 45.5 L 261.164062 45.585938 L 261.257812 45.625 L 261.351562 45.667969 L 261.539062 45.746094 L 261.632812 45.789062 L 261.726562 45.828125 L 261.816406 45.871094 L 262.285156 46.066406 L 262.378906 46.109375 L 262.753906 46.265625 L 262.847656 46.300781 L 263.222656 46.457031 L 263.3125 46.492188 L 263.5 46.570312 L 263.59375 46.605469 L 263.78125 46.683594 L 263.875 46.71875 L 263.96875 46.757812 L 264.15625 46.828125 L 264.25 46.867188 L 264.4375 46.9375 L 264.53125 46.976562 L 264.71875 47.046875 L 264.808594 47.082031 L 265.089844 47.1875 L 265.183594 47.226562 L 265.277344 47.257812 L 265.839844 47.46875 L 265.933594 47.5 L 266.121094 47.570312 L 266.214844 47.601562 L 266.304688 47.636719 L 266.398438 47.671875 L 266.492188 47.703125 L 266.585938 47.738281 L 266.679688 47.769531 L 266.773438 47.804688 L 266.960938 47.867188 L 267.054688 47.902344 L 267.242188 47.964844 L 267.335938 48 L 267.710938 48.125 L 267.800781 48.15625 L 268.550781 48.40625 L 268.644531 48.433594 L 268.832031 48.496094 L 268.925781 48.523438 L 269.113281 48.585938 L 269.207031 48.613281 L 269.296875 48.644531 L 269.390625 48.671875 L 269.484375 48.703125 L 269.578125 48.730469 L 269.671875 48.761719 L 269.765625 48.789062 L 269.859375 48.820312 L 270.140625 48.902344 L 270.234375 48.933594 L 270.703125 49.070312 L 270.792969 49.097656 L 271.542969 49.316406 L 271.636719 49.339844 L 271.917969 49.421875 L 272.011719 49.445312 L 272.199219 49.5 L 272.289062 49.523438 L 272.382812 49.550781 L 272.476562 49.574219 L 272.570312 49.601562 L 272.757812 49.648438 L 272.851562 49.675781 L 272.945312 49.699219 L 273.039062 49.726562 L 273.320312 49.796875 L 273.414062 49.824219 L 273.695312 49.894531 L 273.785156 49.917969 L 274.722656 50.152344 L 274.816406 50.171875 L 275.097656 50.242188 L 275.191406 50.261719 L 275.28125 50.285156 L 275.375 50.308594 L 275.46875 50.328125 L 275.5625 50.351562 L 275.65625 50.371094 L 275.75 50.394531 L 275.84375 50.414062 L 275.9375 50.4375 L 276.03125 50.457031 L 276.125 50.480469 L 276.21875 50.5 L 276.3125 50.523438 L 276.5 50.5625 L 276.59375 50.585938 L 276.6875 50.605469 L 276.777344 50.625 L 276.964844 50.664062 L 277.058594 50.6875 L 278.183594 50.921875 L 278.273438 50.9375 L 278.648438 51.015625 L 278.742188 51.03125 L 278.929688 51.070312 L 279.023438 51.085938 L 279.210938 51.125 L 279.304688 51.140625 L 279.398438 51.160156 L 279.492188 51.175781 L 279.585938 51.195312 L 279.679688 51.210938 L 279.769531 51.230469 L 279.957031 51.261719 L 280.050781 51.28125 L 280.144531 51.296875 L 280.238281 51.316406 L 280.425781 51.347656 "/>
<path style="fill:none;stroke-width:0.213396;stroke-linecap:round;stroke-linejoin:round;stroke:rgb(44.705882%,70.588235%,95.294118%);stroke-opacity:1;stroke-miterlimit:10;" d="M 62.742188 53.953125 L 63.492188 53.953125 L 63.585938 53.949219 L 64.238281 53.949219 L 64.332031 53.945312 L 64.894531 53.945312 L 64.988281 53.941406 L 65.546875 53.941406 L 65.640625 53.9375 L 66.109375 53.9375 L 66.203125 53.933594 L 66.761719 53.933594 L 66.855469 53.929688 L 67.230469 53.929688 L 67.324219 53.925781 L 67.792969 53.925781 L 67.886719 53.921875 L 68.257812 53.921875 L 68.351562 53.917969 L 68.726562 53.917969 L 68.820312 53.914062 L 69.195312 53.914062 L 69.289062 53.910156 L 69.664062 53.910156 L 69.753906 53.90625 L 70.035156 53.90625 L 70.128906 53.902344 L 70.503906 53.902344 L 70.597656 53.898438 L 70.878906 53.898438 L 70.972656 53.894531 L 71.25 53.894531 L 71.34375 53.890625 L 71.625 53.890625 L 71.71875 53.886719 L 72 53.886719 L 72.09375 53.882812 L 72.28125 53.882812 L 72.375 53.878906 L 72.65625 53.878906 L 72.75 53.875 L 72.933594 53.875 L 73.027344 53.871094 L 73.308594 53.871094 L 73.402344 53.867188 L 73.589844 53.867188 L 73.683594 53.863281 L 73.871094 53.863281 L 73.964844 53.859375 L 74.152344 53.859375 L 74.246094 53.855469 L 74.429688 53.855469 L 74.523438 53.851562 L 74.710938 53.851562 L 74.804688 53.847656 L 74.992188 53.847656 L 75.085938 53.84375 L 75.273438 53.84375 L 75.367188 53.839844 L 75.554688 53.839844 L 75.648438 53.835938 L 75.742188 53.835938 L 75.832031 53.832031 L 76.019531 53.832031 L 76.113281 53.828125 L 76.207031 53.828125 L 76.300781 53.824219 L 76.488281 53.824219 L 76.582031 53.820312 L 76.675781 53.820312 L 76.769531 53.816406 L 76.957031 53.816406 L 77.050781 53.8125 L 77.144531 53.8125 L 77.238281 53.808594 L 77.421875 53.808594 L 77.515625 53.804688 L 77.609375 53.804688 L 77.703125 53.800781 L 77.796875 53.800781 L 77.890625 53.796875 L 77.984375 53.796875 L 78.078125 53.792969 L 78.171875 53.792969 L 78.265625 53.789062 L 78.453125 53.789062 L 78.546875 53.785156 L 78.640625 53.785156 L 78.734375 53.78125 L 78.824219 53.78125 L 78.917969 53.777344 L 79.011719 53.777344 L 79.105469 53.773438 L 79.199219 53.773438 L 79.292969 53.769531 L 79.386719 53.769531 L 79.480469 53.765625 L 79.574219 53.765625 L 79.667969 53.761719 L 79.761719 53.761719 L 79.855469 53.757812 L 79.949219 53.757812 L 80.136719 53.75 L 80.230469 53.75 L 80.320312 53.746094 L 80.414062 53.746094 L 80.507812 53.742188 L 80.601562 53.742188 L 80.695312 53.738281 L 80.789062 53.738281 L 80.976562 53.730469 L 81.070312 53.730469 L 81.164062 53.726562 L 81.257812 53.726562 L 81.445312 53.71875 L 81.539062 53.71875 L 81.632812 53.714844 L 81.726562 53.714844 L 81.816406 53.710938 L 81.910156 53.707031 L 82.003906 53.707031 L 82.191406 53.699219 L 82.285156 53.699219 L 82.378906 53.695312 L 82.472656 53.695312 L 82.660156 53.6875 L 82.753906 53.6875 L 83.035156 53.675781 L 83.128906 53.675781 L 83.222656 53.671875 L 83.3125 53.667969 L 83.40625 53.667969 L 83.59375 53.660156 L 83.6875 53.660156 L 83.96875 53.648438 L 84.0625 53.648438 L 84.34375 53.636719 L 84.4375 53.636719 L 84.71875 53.625 L 84.808594 53.621094 L 84.902344 53.621094 L 85.277344 53.605469 L 85.371094 53.605469 L 85.839844 53.585938 L 85.933594 53.585938 L 86.214844 53.574219 L 86.304688 53.570312 L 86.679688 53.554688 L 86.773438 53.554688 L 87.710938 53.515625 L 87.800781 53.511719 L 88.925781 53.464844 L 89.019531 53.457031 L 89.207031 53.449219 L 89.296875 53.445312 L 89.671875 53.429688 L 89.765625 53.421875 L 90.234375 53.402344 L 90.328125 53.394531 L 90.703125 53.378906 L 90.792969 53.371094 L 91.074219 53.359375 L 91.167969 53.351562 L 91.355469 53.34375 L 91.449219 53.335938 L 91.636719 53.328125 L 91.730469 53.320312 L 91.917969 53.3125 L 92.011719 53.304688 L 92.199219 53.296875 L 92.289062 53.289062 L 92.382812 53.285156 L 92.476562 53.277344 L 92.664062 53.269531 L 92.757812 53.261719 L 92.851562 53.257812 L 92.945312 53.25 L 93.039062 53.246094 L 93.132812 53.238281 L 93.226562 53.234375 L 93.320312 53.226562 L 93.414062 53.222656 L 93.507812 53.214844 L 93.601562 53.210938 L 93.695312 53.203125 L 93.785156 53.199219 L 93.878906 53.191406 L 93.972656 53.1875 L 94.066406 53.179688 L 94.160156 53.175781 L 94.347656 53.160156 L 94.441406 53.15625 L 94.535156 53.148438 L 94.628906 53.144531 L 94.816406 53.128906 L 94.910156 53.125 L 95.097656 53.109375 L 95.191406 53.105469 L 95.28125 53.097656 L 95.46875 53.082031 L 95.5625 53.078125 L 95.84375 53.054688 L 95.9375 53.050781 L 96.40625 53.011719 L 96.5 53.007812 L 96.6875 52.992188 L 96.777344 52.984375 L 98.183594 52.867188 L 98.273438 52.859375 L 98.648438 52.828125 L 98.742188 52.816406 L 99.117188 52.785156 L 99.210938 52.773438 L 99.492188 52.75 L 99.585938 52.738281 L 99.679688 52.730469 L 99.769531 52.722656 L 99.863281 52.710938 L 100.050781 52.695312 L 100.144531 52.683594 L 100.332031 52.667969 L 100.425781 52.65625 L 100.519531 52.648438 L 100.613281 52.636719 L 100.707031 52.628906 L 100.800781 52.617188 L 100.894531 52.609375 L 100.988281 52.597656 L 101.082031 52.589844 L 101.175781 52.578125 L 101.265625 52.570312 L 101.359375 52.558594 L 101.453125 52.550781 L 101.546875 52.539062 L 101.640625 52.53125 L 101.828125 52.507812 L 101.921875 52.5 L 102.109375 52.476562 L 102.203125 52.46875 L 102.484375 52.433594 L 102.578125 52.425781 L 102.671875 52.414062 L 102.761719 52.402344 L 102.949219 52.378906 L 103.042969 52.371094 L 104.167969 52.230469 L 104.257812 52.21875 L 104.632812 52.171875 L 104.726562 52.15625 L 105.101562 52.109375 L 105.195312 52.09375 L 105.476562 52.058594 L 105.570312 52.042969 L 105.664062 52.03125 L 105.753906 52.019531 L 105.847656 52.003906 L 105.941406 51.992188 L 106.035156 51.976562 L 106.222656 51.953125 L 106.316406 51.9375 L 106.410156 51.925781 L 106.503906 51.910156 L 106.597656 51.898438 L 106.785156 51.867188 L 106.878906 51.855469 L 106.972656 51.839844 L 107.066406 51.828125 L 107.160156 51.8125 L 107.25 51.796875 L 107.34375 51.785156 L 107.625 51.738281 L 107.71875 51.726562 L 108.1875 51.648438 L 108.28125 51.636719 L 108.75 51.558594 L 108.839844 51.542969 L 109.214844 51.480469 L 109.308594 51.460938 L 109.683594 51.398438 L 109.777344 51.378906 L 110.058594 51.332031 L 110.152344 51.3125 L 110.246094 51.296875 L 110.335938 51.28125 L 110.429688 51.261719 L 110.523438 51.246094 L 110.617188 51.226562 L 110.710938 51.210938 L 110.804688 51.191406 L 110.898438 51.175781 L 110.992188 51.15625 L 111.085938 51.140625 L 111.179688 51.121094 L 111.273438 51.105469 L 111.460938 51.066406 L 111.554688 51.050781 L 111.742188 51.011719 L 111.832031 50.992188 L 111.925781 50.976562 L 112.394531 50.878906 L 112.488281 50.863281 L 113.050781 50.746094 L 113.144531 50.722656 L 113.238281 50.703125 L 113.328125 50.683594 L 113.609375 50.625 L 113.703125 50.601562 L 113.890625 50.5625 L 113.984375 50.539062 L 114.171875 50.5 L 114.265625 50.476562 L 114.453125 50.4375 L 114.546875 50.414062 L 114.640625 50.394531 L 114.734375 50.371094 L 114.824219 50.347656 L 114.917969 50.328125 L 115.011719 50.304688 L 115.105469 50.285156 L 115.292969 50.238281 L 115.386719 50.21875 L 115.761719 50.125 L 115.855469 50.105469 L 116.230469 50.011719 L 116.320312 49.988281 L 116.695312 49.894531 L 116.789062 49.867188 L 117.164062 49.773438 L 117.257812 49.746094 L 117.445312 49.699219 L 117.539062 49.671875 L 117.726562 49.625 L 117.816406 49.597656 L 117.910156 49.574219 L 118.003906 49.546875 L 118.097656 49.523438 L 118.285156 49.46875 L 118.378906 49.445312 L 118.566406 49.390625 L 118.660156 49.367188 L 118.941406 49.285156 L 119.035156 49.261719 L 119.222656 49.207031 L 119.3125 49.179688 L 119.875 49.015625 L 119.96875 48.984375 L 120.34375 48.875 L 120.4375 48.84375 L 120.625 48.789062 L 120.71875 48.757812 L 120.808594 48.730469 L 120.902344 48.699219 L 120.996094 48.671875 L 121.089844 48.640625 L 121.183594 48.613281 L 121.277344 48.582031 L 121.371094 48.554688 L 121.652344 48.460938 L 121.746094 48.433594 L 122.121094 48.308594 L 122.214844 48.28125 L 122.304688 48.25 L 122.585938 48.15625 L 122.679688 48.121094 L 123.148438 47.964844 L 123.242188 47.929688 L 123.429688 47.867188 L 123.523438 47.832031 L 123.617188 47.800781 L 123.710938 47.765625 L 123.800781 47.734375 L 123.894531 47.703125 L 124.082031 47.632812 L 124.175781 47.601562 L 124.363281 47.53125 L 124.457031 47.5 L 124.738281 47.394531 L 124.832031 47.363281 L 125.207031 47.222656 L 125.296875 47.1875 L 125.484375 47.117188 L 125.578125 47.078125 L 125.953125 46.9375 L 126.046875 46.898438 L 126.234375 46.828125 L 126.328125 46.789062 L 126.421875 46.753906 L 126.515625 46.714844 L 126.609375 46.679688 L 126.703125 46.640625 L 126.792969 46.605469 L 126.980469 46.527344 L 127.074219 46.492188 L 127.355469 46.375 L 127.449219 46.339844 L 128.199219 46.027344 L 128.289062 45.984375 L 128.570312 45.867188 L 128.664062 45.824219 L 128.851562 45.746094 L 128.945312 45.703125 L 129.039062 45.664062 L 129.132812 45.621094 L 129.226562 45.582031 L 129.320312 45.539062 L 129.414062 45.5 L 129.601562 45.414062 L 129.695312 45.375 L 129.785156 45.332031 L 130.066406 45.203125 L 130.160156 45.164062 L 130.628906 44.949219 L 130.722656 44.902344 L 131.097656 44.730469 L 131.191406 44.683594 L 131.28125 44.640625 L 131.375 44.597656 L 131.46875 44.550781 L 131.5625 44.507812 L 131.65625 44.460938 L 131.75 44.417969 L 131.84375 44.371094 L 131.9375 44.328125 L 132.125 44.234375 L 132.21875 44.191406 L 132.6875 43.957031 L 132.777344 43.910156 L 132.871094 43.867188 L 132.964844 43.816406 L 133.527344 43.535156 L 133.621094 43.484375 L 133.808594 43.390625 L 133.902344 43.339844 L 133.996094 43.292969 L 134.089844 43.242188 L 134.183594 43.195312 L 134.273438 43.144531 L 134.367188 43.097656 L 134.460938 43.046875 L 134.554688 43 L 134.835938 42.847656 L 134.929688 42.800781 L 135.679688 42.394531 L 135.769531 42.34375 L 135.863281 42.292969 L 135.957031 42.238281 L 136.238281 42.085938 L 136.332031 42.03125 L 136.425781 41.980469 L 136.519531 41.925781 L 136.613281 41.875 L 136.707031 41.820312 L 136.800781 41.769531 L 136.894531 41.714844 L 136.988281 41.664062 L 137.175781 41.554688 L 137.265625 41.503906 L 137.640625 41.285156 L 137.734375 41.234375 L 138.109375 41.015625 L 138.203125 40.957031 L 138.578125 40.738281 L 138.671875 40.679688 L 138.761719 40.625 L 138.855469 40.570312 L 138.949219 40.511719 L 139.136719 40.402344 L 139.324219 40.285156 L 139.417969 40.230469 L 139.511719 40.171875 L 139.605469 40.117188 L 139.792969 40 L 139.886719 39.945312 L 140.167969 39.769531 L 140.257812 39.710938 L 141.195312 39.125 L 141.289062 39.0625 L 141.476562 38.945312 L 141.570312 38.882812 L 141.664062 38.824219 L 141.753906 38.761719 L 141.847656 38.703125 L 141.941406 38.640625 L 142.035156 38.582031 L 142.128906 38.519531 L 142.222656 38.460938 L 142.410156 38.335938 L 142.503906 38.277344 L 142.878906 38.027344 L 142.972656 37.96875 L 143.160156 37.84375 L 143.25 37.78125 L 143.625 37.53125 L 143.71875 37.464844 L 144 37.277344 L 144.09375 37.210938 L 144.375 37.023438 L 144.46875 36.957031 L 144.5625 36.894531 L 144.65625 36.828125 L 144.75 36.765625 L 144.839844 36.699219 L 144.933594 36.636719 L 145.121094 36.503906 L 145.214844 36.441406 L 145.402344 36.308594 L 145.496094 36.246094 L 145.871094 35.980469 L 145.964844 35.917969 L 146.246094 35.71875 L 146.335938 35.652344 L 146.617188 35.453125 L 146.710938 35.382812 L 147.085938 35.117188 L 147.179688 35.046875 L 147.367188 34.914062 L 147.460938 34.84375 L 147.648438 34.710938 L 147.742188 34.640625 L 147.832031 34.574219 L 147.925781 34.503906 L 148.019531 34.4375 L 148.113281 34.367188 L 148.207031 34.300781 L 148.300781 34.230469 L 148.394531 34.164062 L 148.582031 34.023438 L 148.675781 33.957031 L 148.957031 33.746094 L 149.050781 33.679688 L 149.238281 33.539062 L 149.328125 33.46875 L 150.546875 32.554688 L 150.640625 32.480469 L 150.734375 32.410156 L 150.824219 32.339844 L 151.011719 32.199219 L 151.105469 32.125 L 151.292969 31.984375 L 151.386719 31.910156 L 151.480469 31.839844 L 151.574219 31.765625 L 151.761719 31.625 L 151.855469 31.550781 L 151.949219 31.480469 L 152.042969 31.40625 L 152.136719 31.335938 L 152.230469 31.261719 L 152.320312 31.191406 L 152.507812 31.042969 L 152.601562 30.972656 L 152.789062 30.824219 L 152.882812 30.753906 L 153.070312 30.605469 L 153.164062 30.535156 L 153.445312 30.3125 L 153.539062 30.242188 L 153.726562 30.09375 L 153.816406 30.019531 L 153.910156 29.945312 L 154.003906 29.875 L 155.222656 28.910156 L 155.3125 28.835938 L 155.875 28.390625 L 155.96875 28.3125 L 156.53125 27.867188 L 156.625 27.789062 L 156.71875 27.714844 L 156.808594 27.640625 L 156.996094 27.492188 L 157.089844 27.414062 L 157.371094 27.191406 L 157.464844 27.113281 L 157.746094 26.890625 L 157.839844 26.8125 L 158.027344 26.664062 L 158.121094 26.585938 L 158.214844 26.511719 L 158.304688 26.4375 L 158.398438 26.363281 L 158.492188 26.285156 L 158.679688 26.136719 L 158.773438 26.058594 L 158.960938 25.910156 L 159.054688 25.832031 L 159.242188 25.683594 L 159.335938 25.605469 L 159.523438 25.457031 L 159.617188 25.378906 L 159.710938 25.304688 L 159.800781 25.230469 L 159.894531 25.152344 L 160.082031 25.003906 L 160.175781 24.925781 L 160.363281 24.777344 L 160.457031 24.699219 L 160.644531 24.550781 L 160.738281 24.472656 L 161.019531 24.25 L 161.113281 24.171875 L 161.207031 24.097656 L 161.296875 24.023438 L 161.390625 23.945312 L 161.671875 23.722656 L 161.765625 23.644531 L 162.046875 23.421875 L 162.140625 23.34375 L 162.421875 23.121094 L 162.515625 23.042969 L 162.703125 22.894531 L 162.792969 22.820312 L 162.980469 22.671875 L 163.074219 22.59375 L 163.824219 22 L 163.917969 21.921875 L 164.199219 21.699219 L 164.289062 21.625 L 164.476562 21.476562 L 164.570312 21.40625 L 165.320312 20.8125 L 165.414062 20.742188 L 165.695312 20.519531 L 165.785156 20.449219 L 166.066406 20.226562 L 166.160156 20.15625 L 166.253906 20.082031 L 166.347656 20.011719 L 166.535156 19.863281 L 166.628906 19.792969 L 166.722656 19.71875 L 166.816406 19.648438 L 166.910156 19.574219 L 167.003906 19.503906 L 167.097656 19.429688 L 167.191406 19.359375 L 167.28125 19.285156 L 167.46875 19.144531 L 167.5625 19.070312 L 167.84375 18.859375 L 167.9375 18.785156 L 168.40625 18.433594 L 168.5 18.359375 L 168.6875 18.21875 L 168.777344 18.148438 L 168.871094 18.078125 L 168.964844 18.011719 L 169.433594 17.660156 L 169.527344 17.59375 L 169.808594 17.382812 L 169.902344 17.316406 L 169.996094 17.246094 L 170.089844 17.179688 L 170.183594 17.109375 L 170.273438 17.042969 L 170.367188 16.972656 L 170.460938 16.90625 L 170.554688 16.835938 L 170.742188 16.703125 L 170.835938 16.632812 L 171.210938 16.367188 L 171.304688 16.296875 L 171.679688 16.03125 L 171.769531 15.964844 L 171.863281 15.902344 L 172.238281 15.636719 L 172.332031 15.574219 L 172.519531 15.441406 L 172.613281 15.378906 L 172.707031 15.3125 L 172.800781 15.25 L 172.894531 15.183594 L 173.082031 15.058594 L 173.175781 14.992188 L 173.265625 14.929688 L 173.453125 14.804688 L 173.546875 14.738281 L 174.109375 14.363281 L 174.203125 14.304688 L 174.484375 14.117188 L 174.578125 14.058594 L 174.671875 13.996094 L 174.761719 13.933594 L 174.949219 13.816406 L 175.042969 13.753906 L 175.136719 13.695312 L 175.230469 13.632812 L 176.167969 13.046875 L 176.257812 12.988281 L 176.351562 12.929688 L 176.445312 12.875 L 176.539062 12.816406 L 176.632812 12.761719 L 176.726562 12.703125 L 176.820312 12.648438 L 176.914062 12.589844 L 177.101562 12.480469 L 177.195312 12.421875 L 177.664062 12.148438 L 177.753906 12.09375 L 177.847656 12.039062 L 177.941406 11.988281 L 178.128906 11.878906 L 178.222656 11.828125 L 178.316406 11.773438 L 178.410156 11.722656 L 178.503906 11.667969 L 178.597656 11.617188 L 178.691406 11.5625 L 179.160156 11.308594 L 179.25 11.257812 L 179.625 11.054688 L 179.71875 11.007812 L 179.8125 10.957031 L 179.90625 10.910156 L 180 10.859375 L 180.09375 10.8125 L 180.1875 10.761719 L 180.75 10.480469 L 180.839844 10.433594 L 181.121094 10.292969 L 181.214844 10.25 L 181.308594 10.203125 L 181.402344 10.160156 L 181.496094 10.113281 L 181.683594 10.027344 L 181.777344 9.980469 L 182.246094 9.765625 L 182.335938 9.722656 L 182.429688 9.683594 L 182.617188 9.597656 L 182.710938 9.558594 L 182.804688 9.515625 L 182.898438 9.476562 L 182.992188 9.433594 L 183.742188 9.121094 L 183.832031 9.082031 L 183.925781 9.046875 L 184.019531 9.007812 L 184.113281 8.972656 L 184.207031 8.933594 L 184.394531 8.863281 L 184.488281 8.824219 L 184.957031 8.648438 L 185.050781 8.617188 L 185.238281 8.546875 L 185.328125 8.515625 L 185.421875 8.480469 L 185.515625 8.449219 L 185.609375 8.414062 L 186.265625 8.195312 L 186.359375 8.167969 L 186.546875 8.105469 L 186.640625 8.078125 L 186.734375 8.046875 L 186.824219 8.019531 L 187.011719 7.964844 L 187.105469 7.933594 L 187.199219 7.90625 L 187.292969 7.882812 L 187.667969 7.773438 L 187.761719 7.75 L 187.855469 7.722656 L 188.042969 7.675781 L 188.136719 7.648438 L 188.230469 7.625 L 188.320312 7.601562 L 188.601562 7.53125 L 188.695312 7.511719 L 188.882812 7.464844 L 188.976562 7.445312 L 189.070312 7.421875 L 189.257812 7.382812 L 189.351562 7.359375 L 189.726562 7.28125 L 189.816406 7.265625 L 190.003906 7.226562 L 190.097656 7.210938 L 190.191406 7.191406 L 190.285156 7.175781 L 190.378906 7.15625 L 190.941406 7.0625 L 191.035156 7.050781 L 191.222656 7.019531 L 191.3125 7.007812 L 191.40625 6.992188 L 192.25 6.886719 L 192.34375 6.878906 L 192.4375 6.867188 L 192.53125 6.859375 L 192.625 6.847656 L 192.71875 6.839844 L 192.808594 6.832031 L 193.277344 6.792969 L 193.371094 6.789062 L 193.464844 6.78125 L 193.558594 6.777344 L 193.652344 6.769531 L 193.839844 6.761719 L 193.933594 6.753906 L 194.214844 6.742188 L 194.304688 6.742188 L 194.492188 6.734375 L 194.585938 6.734375 L 194.679688 6.730469 L 194.773438 6.730469 L 194.867188 6.726562 L 195.523438 6.726562 L 195.617188 6.730469 L 195.710938 6.730469 L 195.800781 6.734375 L 195.894531 6.734375 L 196.175781 6.746094 L 196.269531 6.746094 L 196.363281 6.75 L 196.457031 6.757812 L 196.738281 6.769531 L 196.832031 6.777344 L 196.925781 6.78125 L 197.113281 6.796875 L 197.207031 6.800781 L 197.296875 6.808594 L 197.671875 6.839844 L 197.765625 6.851562 L 197.953125 6.867188 L 198.140625 6.890625 L 198.234375 6.898438 L 198.703125 6.957031 L 198.792969 6.96875 L 198.886719 6.980469 L 198.980469 6.996094 L 199.074219 7.007812 L 199.167969 7.023438 L 199.261719 7.035156 L 199.449219 7.066406 L 199.542969 7.078125 L 199.824219 7.125 L 199.917969 7.144531 L 200.105469 7.175781 L 200.199219 7.195312 L 200.289062 7.210938 L 200.382812 7.230469 L 200.476562 7.246094 L 201.226562 7.402344 L 201.320312 7.425781 L 201.414062 7.445312 L 201.507812 7.46875 L 201.601562 7.488281 L 201.695312 7.511719 L 201.785156 7.535156 L 202.347656 7.675781 L 202.441406 7.703125 L 202.628906 7.75 L 202.816406 7.804688 L 202.910156 7.828125 L 203.191406 7.910156 L 203.28125 7.9375 L 203.46875 7.992188 L 203.5625 8.023438 L 203.75 8.078125 L 203.84375 8.109375 L 203.9375 8.136719 L 204.6875 8.386719 L 204.777344 8.417969 L 204.871094 8.449219 L 204.964844 8.484375 L 205.058594 8.515625 L 205.246094 8.585938 L 205.339844 8.617188 L 205.996094 8.863281 L 206.089844 8.902344 L 206.183594 8.9375 L 206.273438 8.972656 L 206.367188 9.011719 L 206.460938 9.046875 L 206.742188 9.164062 L 206.835938 9.199219 L 207.023438 9.277344 L 207.117188 9.320312 L 207.398438 9.4375 L 207.492188 9.480469 L 207.679688 9.558594 L 207.769531 9.601562 L 207.863281 9.644531 L 207.957031 9.683594 L 208.707031 10.027344 L 208.800781 10.074219 L 208.894531 10.117188 L 208.988281 10.164062 L 209.082031 10.207031 L 209.175781 10.253906 L 209.265625 10.296875 L 210.203125 10.765625 L 210.296875 10.816406 L 210.390625 10.863281 L 210.484375 10.914062 L 210.578125 10.960938 L 210.671875 11.011719 L 210.761719 11.058594 L 211.699219 11.566406 L 211.792969 11.621094 L 211.886719 11.671875 L 211.980469 11.726562 L 212.074219 11.777344 L 212.167969 11.832031 L 212.257812 11.882812 L 212.445312 11.992188 L 212.539062 12.042969 L 213.101562 12.371094 L 213.195312 12.429688 L 213.476562 12.59375 L 213.570312 12.652344 L 213.664062 12.707031 L 213.753906 12.765625 L 213.847656 12.820312 L 214.035156 12.9375 L 214.128906 12.992188 L 215.066406 13.578125 L 215.160156 13.640625 L 215.25 13.699219 L 215.34375 13.757812 L 215.4375 13.820312 L 215.53125 13.878906 L 215.625 13.941406 L 215.71875 14 L 215.90625 14.125 L 216 14.183594 L 216.375 14.433594 L 216.46875 14.492188 L 216.65625 14.617188 L 216.75 14.683594 L 216.839844 14.746094 L 217.121094 14.933594 L 217.214844 15 L 217.402344 15.125 L 217.496094 15.191406 L 217.589844 15.253906 L 217.683594 15.320312 L 217.777344 15.382812 L 217.871094 15.449219 L 217.964844 15.511719 L 218.152344 15.644531 L 218.246094 15.707031 L 218.335938 15.773438 L 219.367188 16.503906 L 219.460938 16.574219 L 219.742188 16.773438 L 219.832031 16.84375 L 219.925781 16.910156 L 220.019531 16.980469 L 220.113281 17.046875 L 220.207031 17.117188 L 220.300781 17.183594 L 220.394531 17.253906 L 220.488281 17.320312 L 220.675781 17.460938 L 220.769531 17.527344 L 221.050781 17.738281 L 221.144531 17.804688 L 221.238281 17.875 L 221.328125 17.945312 L 222.265625 18.648438 L 222.359375 18.722656 L 222.640625 18.933594 L 222.734375 19.007812 L 222.824219 19.078125 L 222.917969 19.148438 L 223.011719 19.222656 L 223.199219 19.363281 L 223.292969 19.4375 L 223.386719 19.507812 L 223.480469 19.582031 L 223.574219 19.652344 L 223.667969 19.726562 L 223.761719 19.796875 L 223.855469 19.871094 L 223.949219 19.941406 L 224.136719 20.089844 L 224.230469 20.160156 L 224.320312 20.234375 L 224.414062 20.308594 L 224.507812 20.378906 L 224.789062 20.601562 L 224.882812 20.671875 L 225.257812 20.96875 L 225.351562 21.039062 L 225.726562 21.335938 L 225.816406 21.410156 L 227.035156 22.375 L 227.128906 22.453125 L 227.222656 22.527344 L 227.3125 22.601562 L 227.59375 22.824219 L 227.6875 22.902344 L 228.0625 23.199219 L 228.15625 23.277344 L 228.4375 23.5 L 228.53125 23.578125 L 228.71875 23.726562 L 228.808594 23.800781 L 228.902344 23.878906 L 229.183594 24.101562 L 229.277344 24.179688 L 229.464844 24.328125 L 229.558594 24.40625 L 229.746094 24.554688 L 229.839844 24.632812 L 230.027344 24.78125 L 230.121094 24.859375 L 230.214844 24.933594 L 230.304688 25.007812 L 230.398438 25.085938 L 230.585938 25.234375 L 230.679688 25.3125 L 230.867188 25.460938 L 230.960938 25.539062 L 231.148438 25.6875 L 231.242188 25.765625 L 231.429688 25.914062 L 231.523438 25.992188 L 231.710938 26.140625 L 231.800781 26.214844 L 231.894531 26.292969 L 232.082031 26.441406 L 232.175781 26.519531 L 232.363281 26.667969 L 232.457031 26.746094 L 232.738281 26.96875 L 232.832031 27.046875 L 233.113281 27.269531 L 233.207031 27.347656 L 233.296875 27.421875 L 233.578125 27.644531 L 233.671875 27.722656 L 234.046875 28.019531 L 234.140625 28.097656 L 234.703125 28.542969 L 234.792969 28.617188 L 234.886719 28.691406 L 234.980469 28.769531 L 235.917969 29.511719 L 236.011719 29.582031 L 236.199219 29.730469 L 236.289062 29.804688 L 236.664062 30.101562 L 236.757812 30.171875 L 237.039062 30.394531 L 237.132812 30.464844 L 237.414062 30.6875 L 237.507812 30.757812 L 237.695312 30.90625 L 237.785156 30.976562 L 237.878906 31.050781 L 237.972656 31.121094 L 238.160156 31.269531 L 238.253906 31.339844 L 238.347656 31.414062 L 238.441406 31.484375 L 238.535156 31.558594 L 238.722656 31.699219 L 238.816406 31.773438 L 238.910156 31.84375 L 239.003906 31.917969 L 239.191406 32.058594 L 239.28125 32.132812 L 239.5625 32.34375 L 239.65625 32.417969 L 240.03125 32.699219 L 240.125 32.773438 L 240.6875 33.195312 L 240.777344 33.265625 L 240.964844 33.40625 L 241.058594 33.472656 L 241.527344 33.824219 L 241.621094 33.890625 L 241.808594 34.03125 L 241.902344 34.097656 L 242.089844 34.238281 L 242.183594 34.304688 L 242.273438 34.375 L 242.367188 34.441406 L 242.460938 34.511719 L 242.554688 34.578125 L 242.648438 34.648438 L 242.835938 34.78125 L 242.929688 34.851562 L 243.117188 34.984375 L 243.210938 35.054688 L 243.492188 35.253906 L 243.585938 35.324219 L 243.679688 35.390625 L 243.769531 35.457031 L 244.613281 36.054688 L 244.707031 36.117188 L 244.988281 36.316406 L 245.082031 36.378906 L 245.175781 36.445312 L 245.265625 36.511719 L 245.359375 36.574219 L 245.546875 36.707031 L 245.640625 36.769531 L 245.734375 36.835938 L 245.921875 36.960938 L 246.015625 37.027344 L 246.203125 37.152344 L 246.296875 37.21875 L 246.578125 37.40625 L 246.671875 37.472656 L 246.761719 37.535156 L 247.605469 38.097656 L 247.699219 38.15625 L 247.980469 38.34375 L 248.074219 38.402344 L 248.167969 38.464844 L 248.257812 38.527344 L 248.351562 38.585938 L 248.445312 38.648438 L 248.539062 38.707031 L 248.632812 38.769531 L 248.820312 38.886719 L 248.914062 38.949219 L 249.101562 39.066406 L 249.195312 39.128906 L 249.570312 39.363281 L 249.664062 39.425781 L 249.753906 39.484375 L 250.035156 39.660156 L 250.128906 39.714844 L 250.503906 39.949219 L 250.597656 40.003906 L 250.785156 40.121094 L 250.878906 40.175781 L 251.066406 40.292969 L 251.160156 40.347656 L 251.25 40.40625 L 251.34375 40.460938 L 251.4375 40.519531 L 251.625 40.628906 L 251.71875 40.6875 L 252.09375 40.90625 L 252.1875 40.964844 L 252.75 41.292969 L 252.839844 41.34375 L 253.121094 41.507812 L 253.214844 41.558594 L 253.402344 41.667969 L 253.496094 41.71875 L 253.683594 41.828125 L 253.871094 41.929688 L 253.964844 41.984375 L 254.058594 42.035156 L 254.152344 42.089844 L 254.246094 42.140625 L 254.335938 42.191406 L 254.429688 42.242188 L 254.523438 42.296875 L 255.460938 42.804688 L 255.554688 42.851562 L 255.742188 42.953125 L 255.832031 43.003906 L 255.925781 43.050781 L 256.019531 43.101562 L 256.113281 43.148438 L 256.207031 43.199219 L 256.300781 43.246094 L 256.394531 43.296875 L 256.488281 43.34375 L 256.582031 43.394531 L 256.769531 43.488281 L 256.863281 43.539062 L 257.238281 43.726562 L 257.328125 43.773438 L 258.078125 44.148438 L 258.171875 44.191406 L 258.359375 44.285156 L 258.453125 44.328125 L 258.640625 44.421875 L 258.734375 44.464844 L 258.824219 44.511719 L 259.011719 44.597656 L 259.105469 44.644531 L 259.292969 44.730469 L 259.386719 44.777344 L 259.855469 44.992188 L 259.949219 45.039062 L 260.042969 45.082031 L 260.136719 45.121094 L 260.230469 45.164062 L 260.320312 45.207031 L 260.601562 45.335938 L 260.695312 45.375 L 260.882812 45.460938 L 260.976562 45.5 L 261.164062 45.585938 L 261.257812 45.625 L 261.351562 45.667969 L 261.539062 45.746094 L 261.632812 45.789062 L 261.726562 45.828125 L 261.816406 45.871094 L 262.285156 46.066406 L 262.378906 46.109375 L 262.753906 46.265625 L 262.847656 46.300781 L 263.222656 46.457031 L 263.3125 46.492188 L 263.5 46.570312 L 263.59375 46.605469 L 263.78125 46.683594 L 263.875 46.71875 L 263.96875 46.757812 L 264.15625 46.828125 L 264.25 46.867188 L 264.4375 46.9375 L 264.53125 46.976562 L 264.71875 47.046875 L 264.808594 47.082031 L 265.089844 47.1875 L 265.183594 47.226562 L 265.277344 47.257812 L 265.839844 47.46875 L 265.933594 47.5 L 266.121094 47.570312 L 266.214844 47.601562 L 266.304688 47.636719 L 266.398438 47.671875 L 266.492188 47.703125 L 266.585938 47.738281 L 266.679688 47.769531 L 266.773438 47.804688 L 266.960938 47.867188 L 267.054688 47.902344 L 267.242188 47.964844 L 267.335938 48 L 267.710938 48.125 L 267.800781 48.15625 L 268.550781 48.40625 L 268.644531 48.433594 L 268.832031 48.496094 L 268.925781 48.523438 L 269.113281 48.585938 L 269.207031 48.613281 L 269.296875 48.644531 L 269.390625 48.671875 L 269.484375 48.703125 L 269.578125 48.730469 L 269.671875 48.761719 L 269.765625 48.789062 L 269.859375 48.820312 L 270.140625 48.902344 L 270.234375 48.933594 L 270.703125 49.070312 L 270.792969 49.097656 L 271.542969 49.316406 L 271.636719 49.339844 L 271.917969 49.421875 L 272.011719 49.445312 L 272.199219 49.5 L 272.289062 49.523438 L 272.382812 49.550781 L 272.476562 49.574219 L 272.570312 49.601562 L 272.757812 49.648438 L 272.851562 49.675781 L 272.945312 49.699219 L 273.039062 49.726562 L 273.320312 49.796875 L 273.414062 49.824219 L 273.695312 49.894531 L 273.785156 49.917969 L 274.722656 50.152344 L 274.816406 50.171875 L 275.097656 50.242188 L 275.191406 50.261719 L 275.28125 50.285156 L 275.375 50.308594 L 275.46875 50.328125 L 275.5625 50.351562 L 275.65625 50.371094 L 275.75 50.394531 L 275.84375 50.414062 L 275.9375 50.4375 L 276.03125 50.457031 L 276.125 50.480469 L 276.21875 50.5 L 276.3125 50.523438 L 276.5 50.5625 L 276.59375 50.585938 L 276.6875 50.605469 L 276.777344 50.625 L 276.964844 50.664062 L 277.058594 50.6875 L 278.183594 50.921875 L 278.273438 50.9375 L 278.648438 51.015625 L 278.742188 51.03125 L 278.929688 51.070312 L 279.023438 51.085938 L 279.210938 51.125 L 279.304688 51.140625 L 279.398438 51.160156 L 279.492188 51.175781 L 279.585938 51.195312 L 279.679688 51.210938 L 279.769531 51.230469 L 279.957031 51.261719 L 280.050781 51.28125 L 280.144531 51.296875 L 280.238281 51.316406 L 280.425781 51.347656 L 280.519531 51.367188 L 280.894531 51.429688 L 280.988281 51.449219 L 281.175781 51.480469 L 281.265625 51.496094 L 282.390625 51.683594 L 282.484375 51.695312 L 282.671875 51.726562 L 282.761719 51.742188 L 282.855469 51.753906 L 283.136719 51.800781 L 283.230469 51.8125 L 283.324219 51.828125 L 283.417969 51.839844 L 283.605469 51.871094 L 283.699219 51.882812 L 283.792969 51.898438 L 283.886719 51.910156 L 283.980469 51.925781 L 284.074219 51.9375 L 284.167969 51.953125 L 284.257812 51.964844 L 284.351562 51.980469 L 284.539062 52.003906 L 284.632812 52.019531 L 284.726562 52.03125 L 284.820312 52.046875 L 285.101562 52.082031 L 285.195312 52.097656 L 285.476562 52.132812 L 285.570312 52.148438 L 285.664062 52.160156 L 285.753906 52.171875 L 287.160156 52.347656 L 287.25 52.359375 L 287.4375 52.382812 L 287.53125 52.390625 L 287.90625 52.4375 L 288 52.445312 L 288.1875 52.46875 L 288.28125 52.476562 L 288.46875 52.5 L 288.5625 52.507812 L 288.75 52.53125 L 288.839844 52.539062 L 289.027344 52.5625 L 289.121094 52.570312 L 289.214844 52.582031 L 289.308594 52.589844 L 289.402344 52.601562 L 289.496094 52.609375 L 289.589844 52.621094 L 289.683594 52.628906 L 289.777344 52.640625 L 289.964844 52.65625 L 290.058594 52.667969 L 290.152344 52.675781 L 290.246094 52.6875 L 290.335938 52.695312 L 290.429688 52.703125 L 290.523438 52.714844 L 290.710938 52.730469 L 290.804688 52.742188 L 291.085938 52.765625 L 291.179688 52.777344 L 291.554688 52.808594 L 291.648438 52.820312 L 291.742188 52.828125 L 291.832031 52.835938 L 292.394531 52.882812 L 292.488281 52.894531 L 293.144531 52.949219 L 293.238281 52.953125 L 293.328125 52.960938 L 293.984375 53.015625 L 294.078125 53.019531 L 294.546875 53.058594 L 294.640625 53.0625 L 294.734375 53.070312 L 294.824219 53.078125 L 294.917969 53.085938 L 295.011719 53.089844 L 295.199219 53.105469 L 295.292969 53.109375 L 295.480469 53.125 L 295.574219 53.128906 L 295.761719 53.144531 L 295.855469 53.148438 L 296.042969 53.164062 L 296.136719 53.167969 L 296.230469 53.175781 L 296.320312 53.179688 L 296.414062 53.1875 L 296.507812 53.191406 L 296.695312 53.207031 L 296.789062 53.210938 L 296.882812 53.21875 L 296.976562 53.222656 L 297.070312 53.230469 L 297.164062 53.234375 L 297.257812 53.242188 L 297.445312 53.25 L 297.539062 53.257812 L 297.632812 53.261719 L 297.726562 53.269531 L 297.816406 53.273438 L 297.910156 53.28125 L 298.097656 53.289062 L 298.191406 53.296875 L 298.285156 53.300781 L 298.378906 53.308594 L 298.566406 53.316406 L 298.660156 53.324219 L 298.847656 53.332031 L 298.941406 53.339844 L 299.222656 53.351562 L 299.3125 53.359375 L 299.59375 53.371094 L 299.6875 53.378906 L 299.96875 53.390625 L 300.0625 53.398438 L 300.53125 53.417969 L 300.625 53.425781 L 300.71875 53.429688 L 300.808594 53.433594 L 301.277344 53.453125 L 301.371094 53.460938 L 302.214844 53.496094 L 302.304688 53.5 L 303.710938 53.558594 L 303.800781 53.558594 L 304.457031 53.585938 L 304.550781 53.585938 L 305.113281 53.609375 L 305.207031 53.609375 L 305.296875 53.613281 L 305.578125 53.625 L 305.671875 53.625 L 305.953125 53.636719 L 306.046875 53.636719 L 306.328125 53.648438 L 306.421875 53.648438 L 306.703125 53.660156 L 306.792969 53.660156 L 306.980469 53.667969 L 307.074219 53.667969 L 307.355469 53.679688 L 307.449219 53.679688 L 307.636719 53.6875 L 307.730469 53.6875 L 307.917969 53.695312 L 308.011719 53.695312 L 308.199219 53.703125 L 308.289062 53.703125 L 308.382812 53.707031 L 308.476562 53.707031 L 308.664062 53.714844 L 308.757812 53.714844 L 308.851562 53.71875 L 308.945312 53.71875 L 309.132812 53.726562 L 309.226562 53.726562 L 309.320312 53.730469 L 309.414062 53.730469 L 309.601562 53.738281 L 309.695312 53.738281 L 309.785156 53.742188 L 309.878906 53.742188 L 309.972656 53.746094 L 310.066406 53.746094 L 310.160156 53.75 L 310.253906 53.75 L 310.441406 53.757812 L 310.535156 53.757812 L 310.628906 53.761719 L 310.722656 53.761719 L 310.816406 53.765625 L 310.910156 53.765625 L 311.003906 53.769531 L 311.097656 53.769531 L 311.191406 53.773438 L 311.28125 53.773438 L 311.375 53.777344 L 311.46875 53.777344 L 311.5625 53.78125 L 311.65625 53.78125 L 311.75 53.785156 L 311.84375 53.785156 L 311.9375 53.789062 L 312.03125 53.789062 L 312.125 53.792969 L 312.3125 53.792969 L 312.40625 53.796875 L 312.5 53.796875 L 312.59375 53.800781 L 312.6875 53.800781 L 312.777344 53.804688 L 312.871094 53.804688 L 312.964844 53.808594 L 313.152344 53.808594 L 313.246094 53.8125 L 313.339844 53.8125 L 313.433594 53.816406 L 313.527344 53.816406 L 313.621094 53.820312 L 313.808594 53.820312 L 313.902344 53.824219 L 313.996094 53.824219 L 314.089844 53.828125 L 314.273438 53.828125 L 314.367188 53.832031 L 314.554688 53.832031 L 314.648438 53.835938 L 314.742188 53.835938 L 314.835938 53.839844 L 315.023438 53.839844 L 315.117188 53.84375 L 315.304688 53.84375 L 315.398438 53.847656 L 315.585938 53.847656 L 315.679688 53.851562 L 315.863281 53.851562 L 315.957031 53.855469 L 316.144531 53.855469 L 316.238281 53.859375 L 316.425781 53.859375 L 316.519531 53.863281 L 316.707031 53.863281 L 316.800781 53.867188 L 316.988281 53.867188 L 317.082031 53.871094 L 317.359375 53.871094 L 317.453125 53.875 L 317.640625 53.875 L 317.734375 53.878906 L 318.015625 53.878906 L 318.109375 53.882812 L 318.296875 53.882812 L 318.390625 53.886719 L 318.671875 53.886719 L 318.761719 53.890625 L 319.042969 53.890625 L 319.136719 53.894531 L 319.417969 53.894531 L 319.511719 53.898438 L 319.792969 53.898438 L 319.886719 53.902344 L 320.167969 53.902344 L 320.257812 53.90625 L 320.632812 53.90625 L 320.726562 53.910156 L 321.101562 53.910156 L 321.195312 53.914062 L 321.476562 53.914062 L 321.570312 53.917969 L 322.035156 53.917969 L 322.128906 53.921875 L 322.503906 53.921875 L 322.597656 53.925781 L 322.972656 53.925781 L 323.066406 53.929688 L 323.53125 53.929688 L 323.625 53.933594 L 324.09375 53.933594 L 324.1875 53.9375 L 324.75 53.9375 L 324.839844 53.941406 L 325.402344 53.941406 L 325.496094 53.945312 L 326.058594 53.945312 L 326.152344 53.949219 L 326.804688 53.949219 L 326.898438 53.953125 L 327.554688 53.953125 "/>
<path style="fill:none;stroke-width:1.066978;stroke-linecap:butt;stroke-linejoin:round;stroke:rgb(50.196078%,50.196078%,50.196078%);stroke-opacity:0.501961;stroke-dasharray:4.267913,4.267913;stroke-miterlimit:10;" d="M 109.871094 108 L 109.871094 0 "/>
</g>
</svg>
